<?xml version="1.0" encoding="UTF-8"?>
<!DOCTYPE svg PUBLIC "-//W3C//DTD SVG 1.1//EN" "http://www.w3.org/Graphics/SVG/1.1/DTD/svg11.dtd">
<svg xmlns="http://www.w3.org/2000/svg" version="1.1" width="1487px" height="152px" style="shape-rendering:geometricPrecision; text-rendering:geometricPrecision; image-rendering:optimizeQuality; fill-rule:evenodd; clip-rule:evenodd" xmlns:xlink="http://www.w3.org/1999/xlink">
<g><path style="opacity:0.981" fill="#1d191f" d="M 776.5,-0.5 C 817.167,-0.5 857.833,-0.5 898.5,-0.5C 902.233,11.0348 905.566,22.7015 908.5,34.5C 892.167,34.5 875.833,34.5 859.5,34.5C 859.5,73.1667 859.5,111.833 859.5,150.5C 848.167,150.5 836.833,150.5 825.5,150.5C 825.5,111.833 825.5,73.1667 825.5,34.5C 812.496,34.6666 799.496,34.4999 786.5,34C 782.663,22.6559 779.33,11.1559 776.5,-0.5 Z"/></g>
<g><path style="opacity:0.975" fill="#1d191f" d="M -0.5,150.5 C -0.5,149.833 -0.5,149.167 -0.5,148.5C 12.4649,109.434 24.9649,70.1003 37,30.5C 36.2048,20.5936 34.0382,10.9269 30.5,1.5C 47.8237,0.333703 65.1571,0.167036 82.5,1C 87.8769,8.92087 93.3769,16.7542 99,24.5C 112.013,66.2194 125.18,107.886 138.5,149.5C 126.5,150.833 114.5,150.833 102.5,149.5C 99.9266,141.28 97.26,133.114 94.5,125C 77.5033,124.5 60.5033,124.333 43.5,124.5C 41.1331,133.1 38.4664,141.6 35.5,150C 23.5046,150.5 11.5046,150.667 -0.5,150.5 Z M 68.5,43.5 C 73.9054,59.2152 79.2387,75.0486 84.5,91C 74.5056,91.4998 64.5056,91.6665 54.5,91.5C 59.3715,75.5529 64.0382,59.5529 68.5,43.5 Z"/></g>
<g><path style="opacity:0.982" fill="#1d191f" d="M 276.5,151.5 C 239.833,151.5 203.167,151.5 166.5,151.5C 166.667,110.832 166.5,70.1653 166,29.5C 163.468,20.071 160.635,10.7377 157.5,1.5C 197.496,0.333403 237.496,0.166736 277.5,1C 284.032,7.19753 290.199,13.6975 296,20.5C 296.667,57.1667 296.667,93.8333 296,130.5C 289.662,137.671 283.162,144.671 276.5,151.5 Z M 200.5,35.5 C 221.167,35.5 241.833,35.5 262.5,35.5C 262.5,62.1667 262.5,88.8333 262.5,115.5C 241.833,115.5 221.167,115.5 200.5,115.5C 200.5,88.8333 200.5,62.1667 200.5,35.5 Z"/></g>
<g><path style="opacity:0.968" fill="#1d191f" d="M 320.5,0.5 C 332.518,0.167693 344.518,0.501027 356.5,1.5C 367.212,36.6932 378.379,71.6932 390,106.5C 401.348,71.2931 412.181,35.9598 422.5,0.5C 434.838,0.333455 447.171,0.500122 459.5,1C 443.332,50.6717 427.665,100.505 412.5,150.5C 400.149,150.832 387.815,150.499 375.5,149.5C 370.862,142.362 366.028,135.362 361,128.5C 346.997,85.9899 333.497,43.3232 320.5,0.5 Z"/></g>
<g><path style="opacity:0.986" fill="#1d191f" d="M 486.5,0.5 C 522.506,0.166781 558.506,0.500114 594.5,1.5C 597.708,12.4557 600.708,23.4557 603.5,34.5C 576.167,34.5 548.833,34.5 521.5,34.5C 521.5,42.5 521.5,50.5 521.5,58.5C 541.5,58.5 561.5,58.5 581.5,58.5C 584.292,69.5443 587.292,80.5443 590.5,91.5C 567.51,92.4997 544.51,92.8331 521.5,92.5C 521.5,100.5 521.5,108.5 521.5,116.5C 545.842,116.167 570.176,116.5 594.5,117.5C 597.708,128.456 600.708,139.456 603.5,150.5C 564.5,150.5 525.5,150.5 486.5,150.5C 486.5,100.5 486.5,50.5 486.5,0.5 Z"/></g>
<g><path style="opacity:0.981" fill="#1d191f" d="M 624.5,0.5 C 661.835,0.333347 699.168,0.500013 736.5,1C 742.667,7.16667 748.833,13.3333 755,19.5C 755.667,37.1667 755.667,54.8333 755,72.5C 746.084,77.7076 737.25,83.041 728.5,88.5C 739.167,108.833 749.833,129.167 760.5,149.5C 747.167,150.833 733.833,150.833 720.5,149.5C 710.5,130.5 700.5,111.5 690.5,92.5C 682.862,91.5025 675.196,91.1692 667.5,91.5C 667.5,111.167 667.5,130.833 667.5,150.5C 655.833,150.5 644.167,150.5 632.5,150.5C 632.667,109.165 632.5,67.832 632,26.5C 629.496,17.8149 626.996,9.14821 624.5,0.5 Z M 667.5,34.5 C 685.5,34.5 703.5,34.5 721.5,34.5C 721.5,42.1667 721.5,49.8333 721.5,57.5C 703.5,57.5 685.5,57.5 667.5,57.5C 667.5,49.8333 667.5,42.1667 667.5,34.5 Z"/></g>
<g><path style="opacity:0.982" fill="#1d191f" d="M 1017.5,0.5 C 1029.17,0.5 1040.83,0.5 1052.5,0.5C 1052.5,19.8333 1052.5,39.1667 1052.5,58.5C 1071.17,58.5 1089.83,58.5 1108.5,58.5C 1108.5,39.1667 1108.5,19.8333 1108.5,0.5C 1120.17,0.5 1131.83,0.5 1143.5,0.5C 1143.5,50.5 1143.5,100.5 1143.5,150.5C 1131.83,150.5 1120.17,150.5 1108.5,150.5C 1108.5,131.167 1108.5,111.833 1108.5,92.5C 1089.83,92.5 1071.17,92.5 1052.5,92.5C 1052.5,111.833 1052.5,131.167 1052.5,150.5C 1040.83,150.5 1029.17,150.5 1017.5,150.5C 1017.5,100.5 1017.5,50.5 1017.5,0.5 Z"/></g>
<g><path style="opacity:0.988" fill="#1d191f" d="M 1185.5,0.5 C 1196.83,0.5 1208.17,0.5 1219.5,0.5C 1219.5,39.1667 1219.5,77.8333 1219.5,116.5C 1240.5,116.5 1261.5,116.5 1282.5,116.5C 1282.5,77.8333 1282.5,39.1667 1282.5,0.5C 1293.83,0.5 1305.17,0.5 1316.5,0.5C 1316.67,44.1679 1316.5,87.8346 1316,131.5C 1309.83,137.667 1303.67,143.833 1297.5,150C 1266.5,150.667 1235.5,150.667 1204.5,150C 1198.33,143.833 1192.17,137.667 1186,131.5C 1185.5,87.8346 1185.33,44.1679 1185.5,0.5 Z"/></g>
<g><path style="opacity:0.98" fill="#1d191f" d="M 1486.5,20.5 C 1486.5,34.5 1486.5,48.5 1486.5,62.5C 1481.7,66.7967 1477.04,71.2967 1472.5,76C 1477.03,81.3618 1481.7,86.5284 1486.5,91.5C 1486.5,104.5 1486.5,117.5 1486.5,130.5C 1479.86,137.474 1473.19,144.474 1466.5,151.5C 1429.83,151.5 1393.17,151.5 1356.5,151.5C 1356.67,110.832 1356.5,70.1653 1356,29.5C 1353.17,20.161 1350.33,10.8277 1347.5,1.5C 1387.5,0.333403 1427.5,0.166736 1467.5,1C 1473.34,8.0041 1479.67,14.5041 1486.5,20.5 Z M 1390.5,35.5 C 1411.17,35.5 1431.83,35.5 1452.5,35.5C 1452.5,43.1667 1452.5,50.8333 1452.5,58.5C 1431.83,58.5 1411.17,58.5 1390.5,58.5C 1390.5,50.8333 1390.5,43.1667 1390.5,35.5 Z M 1390.5,93.5 C 1411.17,93.5 1431.83,93.5 1452.5,93.5C 1452.5,100.833 1452.5,108.167 1452.5,115.5C 1431.83,115.5 1411.17,115.5 1390.5,115.5C 1390.5,108.167 1390.5,100.833 1390.5,93.5 Z"/></g>
</svg>
