<?xml version="1.0" encoding="UTF-8"?>
<!DOCTYPE svg PUBLIC "-//W3C//DTD SVG 1.1//EN" "http://www.w3.org/Graphics/SVG/1.1/DTD/svg11.dtd">
<svg xmlns="http://www.w3.org/2000/svg" version="1.1" width="1897px" height="214px" style="shape-rendering:geometricPrecision; text-rendering:geometricPrecision; image-rendering:optimizeQuality; fill-rule:evenodd; clip-rule:evenodd" xmlns:xlink="http://www.w3.org/1999/xlink">
<g><path style="opacity:0.982" fill="#1d191f" d="M 28.5,-0.5 C 65.5,-0.5 102.5,-0.5 139.5,-0.5C 148.495,9.32798 157.995,18.6613 168,27.5C 168.5,41.1626 168.667,54.8293 168.5,68.5C 152.167,68.5 135.833,68.5 119.5,68.5C 119.5,61.8333 119.5,55.1667 119.5,48.5C 95.8333,48.5 72.1667,48.5 48.5,48.5C 48.5,87.1667 48.5,125.833 48.5,164.5C 84.8394,164.167 121.173,164.5 157.5,165.5C 162.173,181.529 166.839,197.529 171.5,213.5C 123.833,213.5 76.1667,213.5 28.5,213.5C 19.1667,203.5 9.5,193.833 -0.5,184.5C -0.5,132.5 -0.5,80.5 -0.5,28.5C 9.5,19.1667 19.1667,9.5 28.5,-0.5 Z"/></g>
<g><path style="opacity:0.989" fill="#1d191f" d="M 245.5,-0.5 C 292.167,-0.5 338.833,-0.5 385.5,-0.5C 394.464,8.96503 403.631,18.2984 413,27.5C 413.667,80.1667 413.667,132.833 413,185.5C 403.631,194.702 394.464,204.035 385.5,213.5C 338.833,213.5 292.167,213.5 245.5,213.5C 236.536,204.035 227.369,194.702 218,185.5C 217.333,132.833 217.333,80.1667 218,27.5C 227.369,18.2984 236.536,8.96503 245.5,-0.5 Z M 265.5,48.5 C 298.833,48.5 332.167,48.5 365.5,48.5C 365.5,87.1667 365.5,125.833 365.5,164.5C 332.167,164.5 298.833,164.5 265.5,164.5C 265.5,125.833 265.5,87.1667 265.5,48.5 Z"/></g>
<g><path style="opacity:0.989" fill="#1d191f" d="M 450.5,-0.5 C 503.5,-0.5 556.5,-0.5 609.5,-0.5C 618.464,8.96503 627.631,18.2984 637,27.5C 637.833,52.5067 637.666,77.5067 636.5,102.5C 623.668,109.748 611.002,117.248 598.5,125C 614.242,154.318 629.575,183.818 644.5,213.5C 625.833,213.5 607.167,213.5 588.5,213.5C 574.101,185.702 559.434,158.035 544.5,130.5C 533.52,129.501 522.52,129.168 511.5,129.5C 511.5,157.5 511.5,185.5 511.5,213.5C 495.167,213.5 478.833,213.5 462.5,213.5C 462.667,155.499 462.5,97.499 462,39.5C 458.163,26.1482 454.329,12.8149 450.5,-0.5 Z M 511.5,48.5 C 537.5,48.5 563.5,48.5 589.5,48.5C 589.5,59.5 589.5,70.5 589.5,81.5C 563.5,81.5 537.5,81.5 511.5,81.5C 511.5,70.5 511.5,59.5 511.5,48.5 Z"/></g>
<g><path style="opacity:0.987" fill="#1d191f" d="M 683.5,-0.5 C 734.167,-0.5 784.833,-0.5 835.5,-0.5C 840.161,15.4709 844.827,31.4709 849.5,47.5C 810.506,48.4999 771.506,48.8332 732.5,48.5C 732.5,59.8333 732.5,71.1667 732.5,82.5C 760.833,82.5 789.167,82.5 817.5,82.5C 821.42,98.5951 825.753,114.595 830.5,130.5C 797.84,131.5 765.173,131.833 732.5,131.5C 732.5,142.5 732.5,153.5 732.5,164.5C 766.84,164.167 801.173,164.5 835.5,165.5C 840.173,181.529 844.839,197.529 849.5,213.5C 794.167,213.5 738.833,213.5 683.5,213.5C 683.5,142.167 683.5,70.8333 683.5,-0.5 Z"/></g>
<g><path style="opacity:0.987" fill="#1d191f" d="M 1023.5,-0.5 C 1061.83,-0.5 1100.17,-0.5 1138.5,-0.5C 1147.83,8.99499 1156.99,18.6617 1166,28.5C 1166.67,41.8333 1166.67,55.1667 1166,68.5C 1149.91,69.4914 1133.74,69.8248 1117.5,69.5C 1117.5,62.5 1117.5,55.5 1117.5,48.5C 1092.83,48.5 1068.17,48.5 1043.5,48.5C 1043.5,87.1667 1043.5,125.833 1043.5,164.5C 1072.83,164.5 1102.17,164.5 1131.5,164.5C 1131.5,155.5 1131.5,146.5 1131.5,137.5C 1114.16,137.667 1096.83,137.5 1079.5,137C 1074.83,121.333 1070.17,105.667 1065.5,90C 1094.17,89.3333 1122.83,89.3333 1151.5,90C 1161,99.5 1170.5,109 1180,118.5C 1180.5,150.165 1180.67,181.832 1180.5,213.5C 1128.5,213.5 1076.5,213.5 1024.5,213.5C 1014.9,204.396 1005.4,195.063 996,185.5C 995.333,132.833 995.333,80.1667 996,27.5C 1005.37,18.2984 1014.54,8.96503 1023.5,-0.5 Z"/></g>
<g><path style="opacity:0.982" fill="#1d191f" d="M 1260.5,-0.5 C 1284.83,-0.5 1309.17,-0.5 1333.5,-0.5C 1341.84,11.3452 1350,23.3452 1358,35.5C 1376.81,94.7598 1395.31,154.093 1413.5,213.5C 1396.83,213.5 1380.17,213.5 1363.5,213.5C 1359.6,201.308 1355.6,189.142 1351.5,177C 1327.17,176.5 1302.84,176.333 1278.5,176.5C 1275.04,188.892 1271.37,201.226 1267.5,213.5C 1250.5,213.5 1233.5,213.5 1216.5,213.5C 1234.33,154.839 1252.66,96.3386 1271.5,38C 1267.53,25.2631 1263.87,12.4298 1260.5,-0.5 Z M 1314.5,60.5 C 1322.28,83.259 1329.61,106.259 1336.5,129.5C 1322.15,129.833 1307.82,129.499 1293.5,128.5C 1300.91,105.942 1307.91,83.2749 1314.5,60.5 Z"/></g>
<g><path style="opacity:0.982" fill="#1d191f" d="M 1441.5,-0.5 C 1463.83,-0.5 1486.17,-0.5 1508.5,-0.5C 1515.73,11.6121 1523.23,23.6121 1531,35.5C 1542.57,67.6388 1554.41,99.6388 1566.5,131.5C 1583.23,87.6593 1599.56,43.6593 1615.5,-0.5C 1631.17,-0.5 1646.83,-0.5 1662.5,-0.5C 1668.72,12.2697 1675.22,24.9364 1682,37.5C 1685.67,96.1609 1689.17,154.828 1692.5,213.5C 1675.83,213.5 1659.17,213.5 1642.5,213.5C 1640.72,172.77 1638.22,132.104 1635,91.5C 1620.06,132.152 1605.23,172.819 1590.5,213.5C 1574.5,213.5 1558.5,213.5 1542.5,213.5C 1527.97,173.075 1513.14,132.742 1498,92.5C 1494.97,132.8 1492.47,173.133 1490.5,213.5C 1473.83,213.5 1457.17,213.5 1440.5,213.5C 1444.27,156.685 1447.94,99.8518 1451.5,43C 1448.74,28.3445 1445.4,13.8445 1441.5,-0.5 Z"/></g>
<g><path style="opacity:0.988" fill="#1d191f" d="M 1739.5,-0.5 C 1790.17,-0.5 1840.83,-0.5 1891.5,-0.5C 1892.99,4.64309 1894.66,9.64309 1896.5,14.5C 1896.5,25.8333 1896.5,37.1667 1896.5,48.5C 1860.5,48.5 1824.5,48.5 1788.5,48.5C 1788.5,59.8333 1788.5,71.1667 1788.5,82.5C 1816.83,82.5 1845.17,82.5 1873.5,82.5C 1877.42,98.5951 1881.75,114.595 1886.5,130.5C 1853.84,131.5 1821.17,131.833 1788.5,131.5C 1788.5,142.5 1788.5,153.5 1788.5,164.5C 1822.84,164.167 1857.17,164.5 1891.5,165.5C 1893.03,170.662 1894.7,175.662 1896.5,180.5C 1896.5,191.5 1896.5,202.5 1896.5,213.5C 1844.17,213.5 1791.83,213.5 1739.5,213.5C 1739.5,142.167 1739.5,70.8333 1739.5,-0.5 Z"/></g>
</svg>
