<?xml version="1.0" encoding="UTF-8"?>
<!DOCTYPE svg PUBLIC "-//W3C//DTD SVG 1.1//EN" "http://www.w3.org/Graphics/SVG/1.1/DTD/svg11.dtd">
<svg xmlns="http://www.w3.org/2000/svg" version="1.1" width="1920px" height="329px" style="shape-rendering:geometricPrecision; text-rendering:geometricPrecision; image-rendering:optimizeQuality; fill-rule:evenodd; clip-rule:evenodd" xmlns:xlink="http://www.w3.org/1999/xlink">
<g><path style="opacity:0.981" fill="#1d191f" d="M 510.5,-0.5 C 551.167,-0.5 591.833,-0.5 632.5,-0.5C 636.233,11.0348 639.566,22.7015 642.5,34.5C 626.167,34.5 609.833,34.5 593.5,34.5C 593.5,73.1667 593.5,111.833 593.5,150.5C 582.167,150.5 570.833,150.5 559.5,150.5C 559.5,111.833 559.5,73.1667 559.5,34.5C 546.496,34.6666 533.496,34.4999 520.5,34C 516.663,22.6559 513.33,11.1559 510.5,-0.5 Z"/></g>
<g><path style="opacity:0.975" fill="#1d191f" d="M 23.5,0.5 C 39.1808,0.16727 54.8475,0.500603 70.5,1.5C 76.1975,10.033 81.6975,18.6997 87,27.5C 95,49.5 103,71.5 111,93.5C 122.333,62.8333 133.667,32.1667 145,1.5C 156.333,0.166667 167.667,0.166667 179,1.5C 183.333,9.5 187.667,17.5 192,25.5C 194.835,66.8594 197.668,108.193 200.5,149.5C 188.518,150.499 176.518,150.832 164.5,150.5C 163.31,122.428 161.476,94.4277 159,66.5C 148.534,94.4234 138.368,122.423 128.5,150.5C 116.833,150.5 105.167,150.5 93.5,150.5C 83.4425,122.497 73.2758,94.4971 63,66.5C 60.6785,94.4656 58.8451,122.466 57.5,150.5C 45.8333,150.5 34.1667,150.5 22.5,150.5C 25.2906,108.852 27.4573,67.1858 29,25.5C 26.9723,17.1934 25.139,8.86011 23.5,0.5 Z"/></g>
<g><path style="opacity:0.988" fill="#1d191f" d="M 238.5,0.5 C 249.833,0.5 261.167,0.5 272.5,0.5C 272.5,39.1667 272.5,77.8333 272.5,116.5C 293.5,116.5 314.5,116.5 335.5,116.5C 335.5,77.8333 335.5,39.1667 335.5,0.5C 346.833,0.5 358.167,0.5 369.5,0.5C 369.667,44.1679 369.5,87.8346 369,131.5C 362.833,137.667 356.667,143.833 350.5,150C 319.5,150.667 288.5,150.667 257.5,150C 251.333,143.833 245.167,137.667 239,131.5C 238.5,87.8346 238.333,44.1679 238.5,0.5 Z"/></g>
<g><path style="opacity:0.983" fill="#1d191f" d="M 407.5,0.5 C 419.167,0.5 430.833,0.5 442.5,0.5C 442.5,39.1667 442.5,77.8333 442.5,116.5C 466.833,116.5 491.167,116.5 515.5,116.5C 518.5,127.833 521.5,139.167 524.5,150.5C 485.5,150.5 446.5,150.5 407.5,150.5C 407.5,100.5 407.5,50.5 407.5,0.5 Z"/></g>
<g><path style="opacity:1" fill="#1d191f" d="M 671.5,0.5 C 682.833,0.5 694.167,0.5 705.5,0.5C 705.5,50.5 705.5,100.5 705.5,150.5C 694.167,150.5 682.833,150.5 671.5,150.5C 671.5,100.5 671.5,50.5 671.5,0.5 Z"/></g>
<g><path style="opacity:0.983" fill="#1d191f" d="M 823.5,0.5 C 835.167,0.5 846.833,0.5 858.5,0.5C 858.5,39.1667 858.5,77.8333 858.5,116.5C 882.833,116.5 907.167,116.5 931.5,116.5C 934.5,127.833 937.5,139.167 940.5,150.5C 901.5,150.5 862.5,150.5 823.5,150.5C 823.5,100.5 823.5,50.5 823.5,0.5 Z"/></g>
<g><path style="opacity:0.975" fill="#1d191f" d="M 988.5,0.5 C 1005.84,0.333395 1023.17,0.500062 1040.5,1C 1045.88,8.92087 1051.38,16.7542 1057,24.5C 1070.01,66.2194 1083.18,107.886 1096.5,149.5C 1084.5,150.833 1072.5,150.833 1060.5,149.5C 1057.93,141.28 1055.26,133.114 1052.5,125C 1035.5,124.5 1018.5,124.333 1001.5,124.5C 999.133,133.1 996.466,141.6 993.5,150C 981.486,150.833 969.486,150.666 957.5,149.5C 970.301,109.931 982.801,70.2639 995,30.5C 995.667,28.1667 995.667,25.8333 995,23.5C 992.674,15.8595 990.507,8.19287 988.5,0.5 Z M 1026.5,43.5 C 1031.91,59.2152 1037.24,75.0486 1042.5,91C 1032.51,91.4998 1022.51,91.6665 1012.5,91.5C 1017.37,75.5529 1022.04,59.5529 1026.5,43.5 Z"/></g>
<g><path style="opacity:0.97" fill="#1d191f" d="M 1084.5,1.5 C 1098.34,0.174274 1112.34,0.174274 1126.5,1.5C 1136.51,16.8498 1147.01,31.8498 1158,46.5C 1168.5,31.3333 1179,16.1667 1189.5,1C 1203.18,0.167261 1216.85,0.333927 1230.5,1.5C 1212.53,27.9709 1194.36,54.3043 1176,80.5C 1175.5,103.831 1175.33,127.164 1175.5,150.5C 1163.83,150.5 1152.17,150.5 1140.5,150.5C 1140.67,127.498 1140.5,104.498 1140,81.5C 1121.72,54.5927 1103.22,27.926 1084.5,1.5 Z"/></g>
<g><path style="opacity:0.986" fill="#1d191f" d="M 1257.5,0.5 C 1293.51,0.166781 1329.51,0.500114 1365.5,1.5C 1368.71,12.4557 1371.71,23.4557 1374.5,34.5C 1347.17,34.5 1319.83,34.5 1292.5,34.5C 1292.5,42.5 1292.5,50.5 1292.5,58.5C 1312.5,58.5 1332.5,58.5 1352.5,58.5C 1355.29,69.5443 1358.29,80.5443 1361.5,91.5C 1338.51,92.4997 1315.51,92.8331 1292.5,92.5C 1292.5,100.5 1292.5,108.5 1292.5,116.5C 1316.84,116.167 1341.18,116.5 1365.5,117.5C 1368.71,128.456 1371.71,139.456 1374.5,150.5C 1335.5,150.5 1296.5,150.5 1257.5,150.5C 1257.5,100.5 1257.5,50.5 1257.5,0.5 Z"/></g>
<g><path style="opacity:0.981" fill="#1d191f" d="M 1396.5,0.5 C 1433.83,0.333347 1471.17,0.500013 1508.5,1C 1514.67,7.16667 1520.83,13.3333 1527,19.5C 1527.67,37.1667 1527.67,54.8333 1527,72.5C 1518.08,77.7076 1509.25,83.041 1500.5,88.5C 1511.17,108.833 1521.83,129.167 1532.5,149.5C 1519.17,150.833 1505.83,150.833 1492.5,149.5C 1482.5,130.5 1472.5,111.5 1462.5,92.5C 1454.86,91.5025 1447.2,91.1692 1439.5,91.5C 1439.5,111.167 1439.5,130.833 1439.5,150.5C 1427.83,150.5 1416.17,150.5 1404.5,150.5C 1404.67,109.165 1404.5,67.832 1404,26.5C 1401.5,17.8149 1399,9.14821 1396.5,0.5 Z M 1439.5,34.5 C 1457.5,34.5 1475.5,34.5 1493.5,34.5C 1493.5,42.1667 1493.5,49.8333 1493.5,57.5C 1475.5,57.5 1457.5,57.5 1439.5,57.5C 1439.5,49.8333 1439.5,42.1667 1439.5,34.5 Z"/></g>
<g><path style="opacity:0.986" fill="#1d191f" d="M 1562.5,0.5 C 1598.51,0.166781 1634.51,0.500114 1670.5,1.5C 1673.71,12.4557 1676.71,23.4557 1679.5,34.5C 1652.17,34.5 1624.83,34.5 1597.5,34.5C 1597.5,42.5 1597.5,50.5 1597.5,58.5C 1617.5,58.5 1637.5,58.5 1657.5,58.5C 1660.29,69.5443 1663.29,80.5443 1666.5,91.5C 1643.51,92.4997 1620.51,92.8331 1597.5,92.5C 1597.5,100.5 1597.5,108.5 1597.5,116.5C 1621.84,116.167 1646.18,116.5 1670.5,117.5C 1673.71,128.456 1676.71,139.456 1679.5,150.5C 1640.5,150.5 1601.5,150.5 1562.5,150.5C 1562.5,100.5 1562.5,50.5 1562.5,0.5 Z"/></g>
<g><path style="opacity:0.982" fill="#1d191f" d="M 1703.5,0.5 C 1743.5,0.333345 1783.5,0.500012 1823.5,1C 1830.03,7.19753 1836.2,13.6975 1842,20.5C 1842.67,57.1667 1842.67,93.8333 1842,130.5C 1835.87,137.636 1829.37,144.469 1822.5,151C 1785.83,151.5 1749.17,151.667 1712.5,151.5C 1712.67,110.832 1712.5,70.1653 1712,29.5C 1709.26,19.7861 1706.43,10.1194 1703.5,0.5 Z M 1746.5,35.5 C 1767.17,35.5 1787.83,35.5 1808.5,35.5C 1808.5,62.1667 1808.5,88.8333 1808.5,115.5C 1787.83,115.5 1767.17,115.5 1746.5,115.5C 1746.5,88.8333 1746.5,62.1667 1746.5,35.5 Z"/></g>
<g><path style="opacity:0.981" fill="#1d191f" d="M 1373.5,328.5 C 1362.17,328.5 1350.83,328.5 1339.5,328.5C 1339.5,289.833 1339.5,251.167 1339.5,212.5C 1326.5,212.667 1313.5,212.5 1300.5,212C 1296.66,200.656 1293.33,189.156 1290.5,177.5C 1331.17,177.333 1371.83,177.5 1412.5,178C 1416.34,189.344 1419.67,200.844 1422.5,212.5C 1406.17,212.5 1389.83,212.5 1373.5,212.5C 1373.5,251.167 1373.5,289.833 1373.5,328.5 Z"/></g>
<g><path style="opacity:0.98" fill="#1d191f" d="M 1485.5,328.5 C 1473.83,328.5 1462.17,328.5 1450.5,328.5C 1450.5,278.167 1450.5,227.833 1450.5,177.5C 1486.17,177.5 1521.83,177.5 1557.5,177.5C 1560.33,189.156 1563.66,200.656 1567.5,212C 1540.17,212.5 1512.84,212.667 1485.5,212.5C 1485.5,220.5 1485.5,228.5 1485.5,236.5C 1505.17,236.5 1524.83,236.5 1544.5,236.5C 1547.34,247.53 1550.34,258.53 1553.5,269.5C 1530.84,270.5 1508.18,270.833 1485.5,270.5C 1485.5,289.833 1485.5,309.167 1485.5,328.5 Z"/></g>
<g><path style="opacity:0.975" fill="#1d191f" d="M 137.5,328.5 C 125.5,328.5 113.5,328.5 101.5,328.5C 99.1328,319.899 96.4662,311.399 93.5,303C 76.5033,302.5 59.5033,302.333 42.5,302.5C 40.0301,311.242 37.3634,319.909 34.5,328.5C 22.8333,328.5 11.1667,328.5 -0.5,328.5C -0.5,326.833 -0.5,325.167 -0.5,323.5C 12.109,285.427 24.2757,247.093 36,208.5C 35.2048,198.594 33.0382,188.927 29.5,179.5C 46.8237,178.334 64.1571,178.167 81.5,179C 86.8769,186.921 92.3769,194.754 98,202.5C 111.17,244.519 124.337,286.519 137.5,328.5 Z M 67.5,221.5 C 72.9054,237.215 78.2387,253.049 83.5,269C 73.5056,269.5 63.5056,269.666 53.5,269.5C 58.3715,253.553 63.0382,237.553 67.5,221.5 Z"/></g>
<g><path style="opacity:0.975" fill="#1d191f" d="M 338.5,328.5 C 326.5,328.5 314.5,328.5 302.5,328.5C 301.31,300.428 299.476,272.428 297,244.5C 286.534,272.423 276.368,300.423 266.5,328.5C 254.833,328.5 243.167,328.5 231.5,328.5C 221.443,300.497 211.276,272.497 201,244.5C 198.678,272.466 196.845,300.466 195.5,328.5C 183.833,328.5 172.167,328.5 160.5,328.5C 163.291,286.852 165.457,245.186 167,203.5C 164.972,195.193 163.139,186.86 161.5,178.5C 177.181,178.167 192.848,178.501 208.5,179.5C 214.197,188.033 219.697,196.7 225,205.5C 233,227.5 241,249.5 249,271.5C 260.333,240.833 271.667,210.167 283,179.5C 294.09,178.347 305.257,178.18 316.5,179C 321.127,187.086 325.627,195.253 330,203.5C 332.876,245.191 335.71,286.857 338.5,328.5 Z"/></g>
<g><path style="opacity:1" fill="#1d191f" d="M 409.5,328.5 C 398.167,328.5 386.833,328.5 375.5,328.5C 375.5,278.5 375.5,228.5 375.5,178.5C 386.833,178.5 398.167,178.5 409.5,178.5C 409.5,228.5 409.5,278.5 409.5,328.5 Z"/></g>
<g><path style="opacity:0.975" fill="#1d191f" d="M 576.5,328.5 C 562.833,328.5 549.167,328.5 535.5,328.5C 530.214,321.375 524.714,314.375 519,307.5C 508,283.5 497,259.5 486,235.5C 485.5,266.498 485.333,297.498 485.5,328.5C 473.833,328.5 462.167,328.5 450.5,328.5C 450.5,278.5 450.5,228.5 450.5,178.5C 464.171,178.333 477.837,178.5 491.5,179C 497.788,187.077 503.955,195.244 510,203.5C 520.333,226.5 530.667,249.5 541,272.5C 541.5,241.168 541.667,209.835 541.5,178.5C 553.167,178.5 564.833,178.5 576.5,178.5C 576.5,228.5 576.5,278.5 576.5,328.5 Z"/></g>
<g><path style="opacity:0.989" fill="#1d191f" d="M 746.5,328.5 C 709.833,328.5 673.167,328.5 636.5,328.5C 630.203,321.702 623.703,315.035 617,308.5C 616.333,271.5 616.333,234.5 617,197.5C 623.802,191.699 630.302,185.532 636.5,179C 663.5,178.333 690.5,178.333 717.5,179C 724.032,185.198 730.199,191.698 736,198.5C 736.5,208.161 736.666,217.828 736.5,227.5C 725.167,227.5 713.833,227.5 702.5,227.5C 702.5,222.5 702.5,217.5 702.5,212.5C 685.167,212.5 667.833,212.5 650.5,212.5C 650.5,239.833 650.5,267.167 650.5,294.5C 671.167,294.5 691.833,294.5 712.5,294.5C 712.5,288.167 712.5,281.833 712.5,275.5C 700.162,275.667 687.829,275.5 675.5,275C 672.167,264 668.833,253 665.5,242C 685.833,241.333 706.167,241.333 726.5,242C 733,248.5 739.5,255 746,261.5C 746.5,283.831 746.667,306.164 746.5,328.5 Z"/></g>
<g><path style="opacity:0.991" fill="#1d191f" d="M 902.5,328.5 C 891.167,328.5 879.833,328.5 868.5,328.5C 868.667,288.165 868.5,247.832 868,207.5C 865.468,198.071 862.635,188.738 859.5,179.5C 896.829,178.333 934.162,178.167 971.5,179C 977.667,185.167 983.833,191.333 990,197.5C 990.667,215.167 990.667,232.833 990,250.5C 983.833,256.667 977.667,262.833 971.5,269C 948.502,269.5 925.502,269.667 902.5,269.5C 902.5,289.167 902.5,308.833 902.5,328.5 Z M 902.5,212.5 C 920.5,212.5 938.5,212.5 956.5,212.5C 956.5,220.167 956.5,227.833 956.5,235.5C 938.5,235.5 920.5,235.5 902.5,235.5C 902.5,227.833 902.5,220.167 902.5,212.5 Z"/></g>
<g><path style="opacity:0.983" fill="#1d191f" d="M 1140.5,328.5 C 1101.5,328.5 1062.5,328.5 1023.5,328.5C 1023.5,278.5 1023.5,228.5 1023.5,178.5C 1035.17,178.5 1046.83,178.5 1058.5,178.5C 1058.5,217.167 1058.5,255.833 1058.5,294.5C 1082.83,294.5 1107.17,294.5 1131.5,294.5C 1134.5,305.833 1137.5,317.167 1140.5,328.5 Z"/></g>
<g><path style="opacity:0.975" fill="#1d191f" d="M 1297.5,328.5 C 1285.5,328.5 1273.5,328.5 1261.5,328.5C 1259.13,319.899 1256.47,311.399 1253.5,303C 1236.5,302.5 1219.5,302.333 1202.5,302.5C 1200.03,311.242 1197.36,319.909 1194.5,328.5C 1182.5,328.5 1170.5,328.5 1158.5,328.5C 1171.09,288.548 1183.59,248.548 1196,208.5C 1195.2,198.594 1193.04,188.927 1189.5,179.5C 1206.82,178.334 1224.16,178.167 1241.5,179C 1246.88,186.921 1252.38,194.754 1258,202.5C 1271.17,244.519 1284.34,286.519 1297.5,328.5 Z M 1227.5,221.5 C 1232.91,237.215 1238.24,253.049 1243.5,269C 1233.51,269.5 1223.51,269.666 1213.5,269.5C 1218.37,253.553 1223.04,237.553 1227.5,221.5 Z"/></g>
<g><path style="opacity:0.988" fill="#1d191f" d="M 1717.5,328.5 C 1684.5,328.5 1651.5,328.5 1618.5,328.5C 1612.54,322.035 1606.37,315.702 1600,309.5C 1599.33,272.5 1599.33,235.5 1600,198.5C 1605.8,191.698 1611.97,185.198 1618.5,179C 1651.5,178.333 1684.5,178.333 1717.5,179C 1724.03,185.198 1730.2,191.698 1736,198.5C 1736.67,235.5 1736.67,272.5 1736,309.5C 1729.63,315.702 1723.46,322.035 1717.5,328.5 Z M 1633.5,212.5 C 1656.5,212.5 1679.5,212.5 1702.5,212.5C 1702.5,239.833 1702.5,267.167 1702.5,294.5C 1679.5,294.5 1656.5,294.5 1633.5,294.5C 1633.5,267.167 1633.5,239.833 1633.5,212.5 Z"/></g>
<g><path style="opacity:0.981" fill="#1d191f" d="M 1903.5,328.5 C 1890.17,328.5 1876.83,328.5 1863.5,328.5C 1853.96,308.952 1843.96,289.619 1833.5,270.5C 1825.86,269.503 1818.2,269.169 1810.5,269.5C 1810.5,289.167 1810.5,308.833 1810.5,328.5C 1798.83,328.5 1787.17,328.5 1775.5,328.5C 1775.67,287.165 1775.5,245.832 1775,204.5C 1772.65,196.115 1770.15,187.782 1767.5,179.5C 1804.83,178.333 1842.16,178.167 1879.5,179C 1885.67,185.167 1891.83,191.333 1898,197.5C 1898.67,215.167 1898.67,232.833 1898,250.5C 1889.08,255.708 1880.25,261.041 1871.5,266.5C 1882.63,286.952 1893.29,307.619 1903.5,328.5 Z M 1810.5,212.5 C 1828.5,212.5 1846.5,212.5 1864.5,212.5C 1864.5,220.167 1864.5,227.833 1864.5,235.5C 1846.5,235.5 1828.5,235.5 1810.5,235.5C 1810.5,227.833 1810.5,220.167 1810.5,212.5 Z"/></g>
</svg>
