<?xml version="1.0" encoding="UTF-8"?>
<!DOCTYPE svg PUBLIC "-//W3C//DTD SVG 1.1//EN" "http://www.w3.org/Graphics/SVG/1.1/DTD/svg11.dtd">
<svg xmlns="http://www.w3.org/2000/svg" version="1.1" width="1605px" height="435px" style="shape-rendering:geometricPrecision; text-rendering:geometricPrecision; image-rendering:optimizeQuality; fill-rule:evenodd; clip-rule:evenodd" xmlns:xlink="http://www.w3.org/1999/xlink">
<g><path style="opacity:0.984" fill="#1d191f" d="M -0.5,-0.5 C 11.8333,-0.5 24.1667,-0.5 36.5,-0.5C 36.5,41.8333 36.5,84.1667 36.5,126.5C 59.8333,126.5 83.1667,126.5 106.5,126.5C 106.5,84.1667 106.5,41.8333 106.5,-0.5C 119.167,-0.5 131.833,-0.5 144.5,-0.5C 144.667,47.1678 144.5,94.8345 144,142.5C 136.833,149.667 129.667,156.833 122.5,164C 88.5,164.667 54.5,164.667 20.5,164C 13.6315,156.964 6.63154,150.131 -0.5,143.5C -0.5,95.5 -0.5,47.5 -0.5,-0.5 Z"/></g>
<g><path style="opacity:0.982" fill="#1d191f" d="M 172.5,-0.5 C 217.5,-0.5 262.5,-0.5 307.5,-0.5C 310.628,12.2169 313.961,24.8836 317.5,37.5C 299.5,37.5 281.5,37.5 263.5,37.5C 263.5,79.8333 263.5,122.167 263.5,164.5C 250.833,164.5 238.167,164.5 225.5,164.5C 225.5,122.167 225.5,79.8333 225.5,37.5C 211.167,37.5 196.833,37.5 182.5,37.5C 179.168,24.8397 175.835,12.173 172.5,-0.5 Z"/></g>
<g><path style="opacity:0.987" fill="#1d191f" d="M 344.5,-0.5 C 357.167,-0.5 369.833,-0.5 382.5,-0.5C 382.5,54.5 382.5,109.5 382.5,164.5C 369.833,164.5 357.167,164.5 344.5,164.5C 344.5,109.5 344.5,54.5 344.5,-0.5 Z"/></g>
<g><path style="opacity:0.982" fill="#1d191f" d="M 420.5,-0.5 C 433.167,-0.5 445.833,-0.5 458.5,-0.5C 458.5,41.8333 458.5,84.1667 458.5,126.5C 485.167,126.5 511.833,126.5 538.5,126.5C 541.664,139.157 545.33,151.657 549.5,164C 506.501,164.5 463.501,164.667 420.5,164.5C 420.5,109.5 420.5,54.5 420.5,-0.5 Z"/></g>
<g><path style="opacity:0.987" fill="#1d191f" d="M 575.5,-0.5 C 588.167,-0.5 600.833,-0.5 613.5,-0.5C 613.5,54.5 613.5,109.5 613.5,164.5C 600.833,164.5 588.167,164.5 575.5,164.5C 575.5,109.5 575.5,54.5 575.5,-0.5 Z"/></g>
<g><path style="opacity:0.982" fill="#1d191f" d="M 642.5,-0.5 C 687.5,-0.5 732.5,-0.5 777.5,-0.5C 780.628,12.2169 783.961,24.8836 787.5,37.5C 769.5,37.5 751.5,37.5 733.5,37.5C 733.5,79.8333 733.5,122.167 733.5,164.5C 720.833,164.5 708.167,164.5 695.5,164.5C 695.5,122.167 695.5,79.8333 695.5,37.5C 681.167,37.5 666.833,37.5 652.5,37.5C 649.168,24.8397 645.835,12.173 642.5,-0.5 Z"/></g>
<g><path style="opacity:0.987" fill="#1d191f" d="M 814.5,-0.5 C 827.167,-0.5 839.833,-0.5 852.5,-0.5C 852.5,54.5 852.5,109.5 852.5,164.5C 839.833,164.5 827.167,164.5 814.5,164.5C 814.5,109.5 814.5,54.5 814.5,-0.5 Z"/></g>
<g><path style="opacity:0.979" fill="#1d191f" d="M 890.5,-0.5 C 929.833,-0.5 969.167,-0.5 1008.5,-0.5C 1012.01,11.8498 1015.67,24.1832 1019.5,36.5C 989.174,37.4998 958.841,37.8332 928.5,37.5C 928.5,45.8333 928.5,54.1667 928.5,62.5C 950.5,62.5 972.5,62.5 994.5,62.5C 997.361,74.9447 1000.69,87.278 1004.5,99.5C 979.175,100.5 953.842,100.833 928.5,100.5C 928.5,109.167 928.5,117.833 928.5,126.5C 955.175,126.167 981.842,126.5 1008.5,127.5C 1011.94,139.758 1015.61,151.925 1019.5,164C 976.501,164.5 933.501,164.667 890.5,164.5C 890.5,109.5 890.5,54.5 890.5,-0.5 Z"/></g>
<g><path style="opacity:0.973" fill="#1d191f" d="M 1068.5,-0.5 C 1096.83,-0.5 1125.17,-0.5 1153.5,-0.5C 1160.46,6.9649 1167.63,14.2982 1175,21.5C 1175.5,32.1615 1175.67,42.8281 1175.5,53.5C 1162.83,53.5 1150.17,53.5 1137.5,53.5C 1137.5,48.1667 1137.5,42.8333 1137.5,37.5C 1120.17,37.5 1102.83,37.5 1085.5,37.5C 1085.5,47.5 1085.5,57.5 1085.5,67.5C 1110.17,67.3334 1134.84,67.5 1159.5,68C 1167,75.5 1174.5,83 1182,90.5C 1182.67,107.833 1182.67,125.167 1182,142.5C 1174.83,149.667 1167.67,156.833 1160.5,164C 1125.83,164.667 1091.17,164.667 1056.5,164C 1052.92,151.833 1049.25,139.666 1045.5,127.5C 1078.49,126.5 1111.49,126.167 1144.5,126.5C 1144.5,119.5 1144.5,112.5 1144.5,105.5C 1119.16,105.667 1093.83,105.5 1068.5,105C 1062.03,97.5305 1055.2,90.3638 1048,83.5C 1047.33,62.5 1047.33,41.5 1048,20.5C 1055.04,13.6315 1061.87,6.63154 1068.5,-0.5 Z"/></g>
<g><path style="opacity:0.976" fill="#1d191f" d="M 130.5,434.5 C 94.1667,434.5 57.8333,434.5 21.5,434.5C 14.5,426.833 7.16667,419.5 -0.5,412.5C -0.5,372.167 -0.5,331.833 -0.5,291.5C 6.9649,284.536 14.2982,277.369 21.5,270C 57.8333,269.333 94.1667,269.333 130.5,270C 136.968,277.47 143.802,284.636 151,291.5C 151.667,332.167 151.667,372.833 151,413.5C 143.964,420.368 137.131,427.368 130.5,434.5 Z M 37.5,307.5 C 62.8333,307.5 88.1667,307.5 113.5,307.5C 113.5,337.167 113.5,366.833 113.5,396.5C 88.1667,396.5 62.8333,396.5 37.5,396.5C 37.5,366.833 37.5,337.167 37.5,307.5 Z"/></g>
<g><path style="opacity:0.983" fill="#1d191f" d="M 228.5,434.5 C 215.833,434.5 203.167,434.5 190.5,434.5C 190.5,379.5 190.5,324.5 190.5,269.5C 229.833,269.5 269.167,269.5 308.5,269.5C 311.628,282.217 314.961,294.884 318.5,307.5C 288.5,307.5 258.5,307.5 228.5,307.5C 228.5,315.833 228.5,324.167 228.5,332.5C 250.167,332.5 271.833,332.5 293.5,332.5C 296.833,345.167 300.167,357.833 303.5,370.5C 278.5,370.5 253.5,370.5 228.5,370.5C 228.5,391.833 228.5,413.167 228.5,434.5 Z"/></g>
<g><path style="opacity:0.987" fill="#1d191f" d="M 552.5,434.5 C 511.833,434.5 471.167,434.5 430.5,434.5C 430.667,389.499 430.5,344.499 430,299.5C 426.851,289.57 424.018,279.57 421.5,269.5C 465.168,269.333 508.835,269.5 552.5,270C 559.667,277.167 566.833,284.333 574,291.5C 574.667,331.833 574.667,372.167 574,412.5C 566.631,419.702 559.464,427.035 552.5,434.5 Z M 468.5,307.5 C 491.167,307.5 513.833,307.5 536.5,307.5C 536.5,337.167 536.5,366.833 536.5,396.5C 513.833,396.5 491.167,396.5 468.5,396.5C 468.5,366.833 468.5,337.167 468.5,307.5 Z"/></g>
<g><path style="opacity:0.982" fill="#1d191f" d="M 738.5,434.5 C 695.5,434.5 652.5,434.5 609.5,434.5C 609.5,379.5 609.5,324.5 609.5,269.5C 622.167,269.5 634.833,269.5 647.5,269.5C 647.5,311.833 647.5,354.167 647.5,396.5C 674.167,396.5 700.833,396.5 727.5,396.5C 730.767,409.299 734.434,421.966 738.5,434.5 Z"/></g>
<g><path style="opacity:0.987" fill="#1d191f" d="M 888.5,434.5 C 847.833,434.5 807.167,434.5 766.5,434.5C 766.667,389.499 766.5,344.499 766,299.5C 762.851,289.57 760.018,279.57 757.5,269.5C 801.168,269.333 844.835,269.5 888.5,270C 895.667,277.167 902.833,284.333 910,291.5C 910.667,331.833 910.667,372.167 910,412.5C 902.631,419.702 895.464,427.035 888.5,434.5 Z M 804.5,307.5 C 827.167,307.5 849.833,307.5 872.5,307.5C 872.5,337.167 872.5,366.833 872.5,396.5C 849.833,396.5 827.167,396.5 804.5,396.5C 804.5,366.833 804.5,337.167 804.5,307.5 Z"/></g>
<g><path style="opacity:0.975" fill="#1d191f" d="M 1161.5,434.5 C 1124.5,434.5 1087.5,434.5 1050.5,434.5C 1043.87,427.368 1037.04,420.368 1030,413.5C 1029.33,372.5 1029.33,331.5 1030,290.5C 1036.83,283.667 1043.67,276.833 1050.5,270C 1079.5,269.333 1108.5,269.333 1137.5,270C 1144.36,277.198 1151.53,284.032 1159,290.5C 1159.5,301.495 1159.67,312.495 1159.5,323.5C 1146.83,323.5 1134.17,323.5 1121.5,323.5C 1121.5,318.167 1121.5,312.833 1121.5,307.5C 1103.5,307.5 1085.5,307.5 1067.5,307.5C 1067.5,337.167 1067.5,366.833 1067.5,396.5C 1095.51,396.167 1123.51,396.5 1151.5,397.5C 1155.24,409.732 1158.58,422.066 1161.5,434.5 Z"/></g>
<g><path style="opacity:0.976" fill="#1d191f" d="M 1327.5,434.5 C 1291.17,434.5 1254.83,434.5 1218.5,434.5C 1211.54,427.035 1204.37,419.702 1197,412.5C 1196.33,372.167 1196.33,331.833 1197,291.5C 1204.17,284.333 1211.33,277.167 1218.5,270C 1254.83,269.333 1291.17,269.333 1327.5,270C 1333.97,277.47 1340.8,284.636 1348,291.5C 1348.67,332.167 1348.67,372.833 1348,413.5C 1340.96,420.368 1334.13,427.368 1327.5,434.5 Z M 1234.5,307.5 C 1259.83,307.5 1285.17,307.5 1310.5,307.5C 1310.5,337.167 1310.5,366.833 1310.5,396.5C 1285.17,396.5 1259.83,396.5 1234.5,396.5C 1234.5,366.833 1234.5,337.167 1234.5,307.5 Z"/></g>
<g><path style="opacity:0.987" fill="#1d191f" d="M 1425.5,434.5 C 1412.83,434.5 1400.17,434.5 1387.5,434.5C 1387.5,379.5 1387.5,324.5 1387.5,269.5C 1400.17,269.5 1412.83,269.5 1425.5,269.5C 1425.5,324.5 1425.5,379.5 1425.5,434.5 Z"/></g>
<g><path style="opacity:0.982" fill="#1d191f" d="M 1604.5,269.5 C 1604.5,324.5 1604.5,379.5 1604.5,434.5C 1589.83,434.5 1575.17,434.5 1560.5,434.5C 1554.21,426.374 1547.71,418.374 1541,410.5C 1528.81,384.251 1516.81,357.918 1505,331.5C 1504.5,365.832 1504.33,400.165 1504.5,434.5C 1491.83,434.5 1479.17,434.5 1466.5,434.5C 1466.5,379.5 1466.5,324.5 1466.5,269.5C 1481.5,269.333 1496.5,269.5 1511.5,270C 1517.67,278.167 1523.83,286.333 1530,294.5C 1542,320.5 1554,346.5 1566,372.5C 1566.5,338.168 1566.67,303.835 1566.5,269.5C 1579.17,269.5 1591.83,269.5 1604.5,269.5 Z"/></g>
</svg>
