<?xml version="1.0" encoding="UTF-8"?>
<!DOCTYPE svg PUBLIC "-//W3C//DTD SVG 1.1//EN" "http://www.w3.org/Graphics/SVG/1.1/DTD/svg11.dtd">
<svg xmlns="http://www.w3.org/2000/svg" version="1.1" width="1920px" height="329px" style="shape-rendering:geometricPrecision; text-rendering:geometricPrecision; image-rendering:optimizeQuality; fill-rule:evenodd; clip-rule:evenodd" xmlns:xlink="http://www.w3.org/1999/xlink">
<g><path style="opacity:0.981" fill="#19141b" d="M 494.5,-0.5 C 535.167,-0.5 575.833,-0.5 616.5,-0.5C 620.233,11.0348 623.566,22.7015 626.5,34.5C 610.167,34.5 593.833,34.5 577.5,34.5C 577.5,73.1667 577.5,111.833 577.5,150.5C 566.167,150.5 554.833,150.5 543.5,150.5C 543.5,111.833 543.5,73.1667 543.5,34.5C 530.496,34.6666 517.496,34.4999 504.5,34C 500.663,22.6559 497.33,11.1559 494.5,-0.5 Z"/></g>
<g><path style="opacity:0.975" fill="#19141b" d="M 7.5,0.5 C 23.1808,0.16727 38.8475,0.500603 54.5,1.5C 60.1975,10.033 65.6975,18.6997 71,27.5C 79,49.5 87,71.5 95,93.5C 106.333,62.8333 117.667,32.1667 129,1.5C 140.333,0.166667 151.667,0.166667 163,1.5C 167.333,9.5 171.667,17.5 176,25.5C 178.835,66.8594 181.668,108.193 184.5,149.5C 172.518,150.499 160.518,150.832 148.5,150.5C 147.31,122.428 145.476,94.4277 143,66.5C 132.534,94.4234 122.368,122.423 112.5,150.5C 100.833,150.5 89.1667,150.5 77.5,150.5C 67.4425,122.497 57.2758,94.4971 47,66.5C 44.6785,94.4656 42.8451,122.466 41.5,150.5C 29.8333,150.5 18.1667,150.5 6.5,150.5C 9.29061,108.852 11.4573,67.1858 13,25.5C 10.9723,17.1934 9.13899,8.86011 7.5,0.5 Z"/></g>
<g><path style="opacity:0.988" fill="#19141b" d="M 222.5,0.5 C 233.833,0.5 245.167,0.5 256.5,0.5C 256.5,39.1667 256.5,77.8333 256.5,116.5C 277.5,116.5 298.5,116.5 319.5,116.5C 319.5,77.8333 319.5,39.1667 319.5,0.5C 330.833,0.5 342.167,0.5 353.5,0.5C 353.667,44.1679 353.5,87.8346 353,131.5C 346.833,137.667 340.667,143.833 334.5,150C 303.5,150.667 272.5,150.667 241.5,150C 235.333,143.833 229.167,137.667 223,131.5C 222.5,87.8346 222.333,44.1679 222.5,0.5 Z"/></g>
<g><path style="opacity:0.983" fill="#19141b" d="M 391.5,0.5 C 403.167,0.5 414.833,0.5 426.5,0.5C 426.5,39.1667 426.5,77.8333 426.5,116.5C 450.833,116.5 475.167,116.5 499.5,116.5C 502.5,127.833 505.5,139.167 508.5,150.5C 469.5,150.5 430.5,150.5 391.5,150.5C 391.5,100.5 391.5,50.5 391.5,0.5 Z"/></g>
<g><path style="opacity:1" fill="#19141b" d="M 655.5,0.5 C 666.833,0.5 678.167,0.5 689.5,0.5C 689.5,50.5 689.5,100.5 689.5,150.5C 678.167,150.5 666.833,150.5 655.5,150.5C 655.5,100.5 655.5,50.5 655.5,0.5 Z"/></g>
<g><path style="opacity:0.983" fill="#19141b" d="M 807.5,0.5 C 819.167,0.5 830.833,0.5 842.5,0.5C 842.5,39.1667 842.5,77.8333 842.5,116.5C 866.833,116.5 891.167,116.5 915.5,116.5C 918.5,127.833 921.5,139.167 924.5,150.5C 885.5,150.5 846.5,150.5 807.5,150.5C 807.5,100.5 807.5,50.5 807.5,0.5 Z"/></g>
<g><path style="opacity:0.975" fill="#19141b" d="M 972.5,0.5 C 989.837,0.333395 1007.17,0.500062 1024.5,1C 1029.88,8.92087 1035.38,16.7542 1041,24.5C 1054.01,66.2194 1067.18,107.886 1080.5,149.5C 1068.5,150.833 1056.5,150.833 1044.5,149.5C 1041.93,141.28 1039.26,133.114 1036.5,125C 1019.5,124.5 1002.5,124.333 985.5,124.5C 983.133,133.1 980.466,141.6 977.5,150C 965.486,150.833 953.486,150.666 941.5,149.5C 954.301,109.931 966.801,70.2639 979,30.5C 979.667,28.1667 979.667,25.8333 979,23.5C 976.674,15.8595 974.507,8.19287 972.5,0.5 Z M 1010.5,43.5 C 1015.91,59.2152 1021.24,75.0486 1026.5,91C 1016.51,91.4998 1006.51,91.6665 996.5,91.5C 1001.37,75.5529 1006.04,59.5529 1010.5,43.5 Z"/></g>
<g><path style="opacity:0.97" fill="#19141b" d="M 1068.5,1.5 C 1082.34,0.174274 1096.34,0.174274 1110.5,1.5C 1120.51,16.8498 1131.01,31.8498 1142,46.5C 1152.5,31.3333 1163,16.1667 1173.5,1C 1187.18,0.167261 1200.85,0.333927 1214.5,1.5C 1196.53,27.9709 1178.36,54.3043 1160,80.5C 1159.5,103.831 1159.33,127.164 1159.5,150.5C 1147.83,150.5 1136.17,150.5 1124.5,150.5C 1124.67,127.498 1124.5,104.498 1124,81.5C 1105.72,54.5927 1087.22,27.926 1068.5,1.5 Z"/></g>
<g><path style="opacity:0.986" fill="#19141b" d="M 1241.5,0.5 C 1277.51,0.166781 1313.51,0.500114 1349.5,1.5C 1352.71,12.4557 1355.71,23.4557 1358.5,34.5C 1331.17,34.5 1303.83,34.5 1276.5,34.5C 1276.5,42.5 1276.5,50.5 1276.5,58.5C 1296.5,58.5 1316.5,58.5 1336.5,58.5C 1339.29,69.5443 1342.29,80.5443 1345.5,91.5C 1322.51,92.4997 1299.51,92.8331 1276.5,92.5C 1276.5,100.5 1276.5,108.5 1276.5,116.5C 1300.84,116.167 1325.18,116.5 1349.5,117.5C 1352.71,128.456 1355.71,139.456 1358.5,150.5C 1319.5,150.5 1280.5,150.5 1241.5,150.5C 1241.5,100.5 1241.5,50.5 1241.5,0.5 Z"/></g>
<g><path style="opacity:0.981" fill="#19141b" d="M 1380.5,0.5 C 1417.83,0.333347 1455.17,0.500013 1492.5,1C 1498.67,7.16667 1504.83,13.3333 1511,19.5C 1511.67,37.1667 1511.67,54.8333 1511,72.5C 1502.08,77.7076 1493.25,83.041 1484.5,88.5C 1495.17,108.833 1505.83,129.167 1516.5,149.5C 1503.17,150.833 1489.83,150.833 1476.5,149.5C 1466.5,130.5 1456.5,111.5 1446.5,92.5C 1438.86,91.5025 1431.2,91.1692 1423.5,91.5C 1423.5,111.167 1423.5,130.833 1423.5,150.5C 1411.83,150.5 1400.17,150.5 1388.5,150.5C 1388.67,109.165 1388.5,67.832 1388,26.5C 1385.5,17.8149 1383,9.14821 1380.5,0.5 Z M 1423.5,34.5 C 1441.5,34.5 1459.5,34.5 1477.5,34.5C 1477.5,42.1667 1477.5,49.8333 1477.5,57.5C 1459.5,57.5 1441.5,57.5 1423.5,57.5C 1423.5,49.8333 1423.5,42.1667 1423.5,34.5 Z"/></g>
<g><path style="opacity:0.986" fill="#19141b" d="M 1546.5,0.5 C 1582.51,0.166781 1618.51,0.500114 1654.5,1.5C 1657.71,12.4557 1660.71,23.4557 1663.5,34.5C 1636.17,34.5 1608.83,34.5 1581.5,34.5C 1581.5,42.5 1581.5,50.5 1581.5,58.5C 1601.5,58.5 1621.5,58.5 1641.5,58.5C 1644.29,69.5443 1647.29,80.5443 1650.5,91.5C 1627.51,92.4997 1604.51,92.8331 1581.5,92.5C 1581.5,100.5 1581.5,108.5 1581.5,116.5C 1605.84,116.167 1630.18,116.5 1654.5,117.5C 1657.71,128.456 1660.71,139.456 1663.5,150.5C 1624.5,150.5 1585.5,150.5 1546.5,150.5C 1546.5,100.5 1546.5,50.5 1546.5,0.5 Z"/></g>
<g><path style="opacity:0.982" fill="#19141b" d="M 1687.5,0.5 C 1727.5,0.333345 1767.5,0.500012 1807.5,1C 1814.03,7.19753 1820.2,13.6975 1826,20.5C 1826.67,57.1667 1826.67,93.8333 1826,130.5C 1819.87,137.636 1813.37,144.469 1806.5,151C 1769.83,151.5 1733.17,151.667 1696.5,151.5C 1696.67,110.832 1696.5,70.1653 1696,29.5C 1693.26,19.7861 1690.43,10.1194 1687.5,0.5 Z M 1730.5,35.5 C 1751.17,35.5 1771.83,35.5 1792.5,35.5C 1792.5,62.1667 1792.5,88.8333 1792.5,115.5C 1771.83,115.5 1751.17,115.5 1730.5,115.5C 1730.5,88.8333 1730.5,62.1667 1730.5,35.5 Z"/></g>
<g><path style="opacity:0.981" fill="#19141b" d="M 1357.5,328.5 C 1346.17,328.5 1334.83,328.5 1323.5,328.5C 1323.5,289.833 1323.5,251.167 1323.5,212.5C 1310.5,212.667 1297.5,212.5 1284.5,212C 1280.66,200.656 1277.33,189.156 1274.5,177.5C 1315.17,177.333 1355.83,177.5 1396.5,178C 1400.34,189.344 1403.67,200.844 1406.5,212.5C 1390.17,212.5 1373.83,212.5 1357.5,212.5C 1357.5,251.167 1357.5,289.833 1357.5,328.5 Z"/></g>
<g><path style="opacity:0.98" fill="#19141b" d="M 1469.5,328.5 C 1457.83,328.5 1446.17,328.5 1434.5,328.5C 1434.5,278.167 1434.5,227.833 1434.5,177.5C 1470.17,177.5 1505.83,177.5 1541.5,177.5C 1544.33,189.156 1547.66,200.656 1551.5,212C 1524.17,212.5 1496.84,212.667 1469.5,212.5C 1469.5,220.5 1469.5,228.5 1469.5,236.5C 1489.17,236.5 1508.83,236.5 1528.5,236.5C 1531.34,247.53 1534.34,258.53 1537.5,269.5C 1514.84,270.5 1492.18,270.833 1469.5,270.5C 1469.5,289.833 1469.5,309.167 1469.5,328.5 Z"/></g>
<g><path style="opacity:0.976" fill="#19141b" d="M 121.5,328.5 C 109.5,328.5 97.5,328.5 85.5,328.5C 83.1328,319.899 80.4662,311.399 77.5,303C 60.5033,302.5 43.5033,302.333 26.5,302.5C 24.0301,311.242 21.3634,319.909 18.5,328.5C 12.1667,328.5 5.83333,328.5 -0.5,328.5C -0.5,309.833 -0.5,291.167 -0.5,272.5C 6.59659,251.373 13.4299,230.039 20,208.5C 19.2048,198.594 17.0382,188.927 13.5,179.5C 30.8237,178.334 48.1571,178.167 65.5,179C 70.8769,186.921 76.3769,194.754 82,202.5C 95.1702,244.519 108.337,286.519 121.5,328.5 Z M 51.5,221.5 C 56.9054,237.215 62.2387,253.049 67.5,269C 57.5056,269.5 47.5056,269.666 37.5,269.5C 42.3715,253.553 47.0382,237.553 51.5,221.5 Z"/></g>
<g><path style="opacity:0.975" fill="#19141b" d="M 322.5,328.5 C 310.5,328.5 298.5,328.5 286.5,328.5C 285.31,300.428 283.476,272.428 281,244.5C 270.534,272.423 260.368,300.423 250.5,328.5C 238.833,328.5 227.167,328.5 215.5,328.5C 205.443,300.497 195.276,272.497 185,244.5C 182.678,272.466 180.845,300.466 179.5,328.5C 167.833,328.5 156.167,328.5 144.5,328.5C 147.291,286.852 149.457,245.186 151,203.5C 148.972,195.193 147.139,186.86 145.5,178.5C 161.181,178.167 176.848,178.501 192.5,179.5C 198.197,188.033 203.697,196.7 209,205.5C 217,227.5 225,249.5 233,271.5C 244.333,240.833 255.667,210.167 267,179.5C 278.09,178.347 289.257,178.18 300.5,179C 305.127,187.086 309.627,195.253 314,203.5C 316.876,245.191 319.71,286.857 322.5,328.5 Z"/></g>
<g><path style="opacity:1" fill="#19141b" d="M 393.5,328.5 C 382.167,328.5 370.833,328.5 359.5,328.5C 359.5,278.5 359.5,228.5 359.5,178.5C 370.833,178.5 382.167,178.5 393.5,178.5C 393.5,228.5 393.5,278.5 393.5,328.5 Z"/></g>
<g><path style="opacity:0.975" fill="#19141b" d="M 560.5,328.5 C 546.833,328.5 533.167,328.5 519.5,328.5C 514.214,321.375 508.714,314.375 503,307.5C 492,283.5 481,259.5 470,235.5C 469.5,266.498 469.333,297.498 469.5,328.5C 457.833,328.5 446.167,328.5 434.5,328.5C 434.5,278.5 434.5,228.5 434.5,178.5C 448.171,178.333 461.837,178.5 475.5,179C 481.788,187.077 487.955,195.244 494,203.5C 504.333,226.5 514.667,249.5 525,272.5C 525.5,241.168 525.667,209.835 525.5,178.5C 537.167,178.5 548.833,178.5 560.5,178.5C 560.5,228.5 560.5,278.5 560.5,328.5 Z"/></g>
<g><path style="opacity:0.989" fill="#19141b" d="M 730.5,328.5 C 693.833,328.5 657.167,328.5 620.5,328.5C 614.203,321.702 607.703,315.035 601,308.5C 600.333,271.5 600.333,234.5 601,197.5C 607.802,191.699 614.302,185.532 620.5,179C 647.5,178.333 674.5,178.333 701.5,179C 708.032,185.198 714.199,191.698 720,198.5C 720.5,208.161 720.666,217.828 720.5,227.5C 709.167,227.5 697.833,227.5 686.5,227.5C 686.5,222.5 686.5,217.5 686.5,212.5C 669.167,212.5 651.833,212.5 634.5,212.5C 634.5,239.833 634.5,267.167 634.5,294.5C 655.167,294.5 675.833,294.5 696.5,294.5C 696.5,288.167 696.5,281.833 696.5,275.5C 684.162,275.667 671.829,275.5 659.5,275C 656.167,264 652.833,253 649.5,242C 669.833,241.333 690.167,241.333 710.5,242C 717,248.5 723.5,255 730,261.5C 730.5,283.831 730.667,306.164 730.5,328.5 Z"/></g>
<g><path style="opacity:0.991" fill="#19141b" d="M 886.5,328.5 C 875.167,328.5 863.833,328.5 852.5,328.5C 852.667,288.165 852.5,247.832 852,207.5C 849.468,198.071 846.635,188.738 843.5,179.5C 880.829,178.333 918.162,178.167 955.5,179C 961.667,185.167 967.833,191.333 974,197.5C 974.667,215.167 974.667,232.833 974,250.5C 967.833,256.667 961.667,262.833 955.5,269C 932.502,269.5 909.502,269.667 886.5,269.5C 886.5,289.167 886.5,308.833 886.5,328.5 Z M 886.5,212.5 C 904.5,212.5 922.5,212.5 940.5,212.5C 940.5,220.167 940.5,227.833 940.5,235.5C 922.5,235.5 904.5,235.5 886.5,235.5C 886.5,227.833 886.5,220.167 886.5,212.5 Z"/></g>
<g><path style="opacity:0.983" fill="#19141b" d="M 1124.5,328.5 C 1085.5,328.5 1046.5,328.5 1007.5,328.5C 1007.5,278.5 1007.5,228.5 1007.5,178.5C 1019.17,178.5 1030.83,178.5 1042.5,178.5C 1042.5,217.167 1042.5,255.833 1042.5,294.5C 1066.83,294.5 1091.17,294.5 1115.5,294.5C 1118.5,305.833 1121.5,317.167 1124.5,328.5 Z"/></g>
<g><path style="opacity:0.975" fill="#19141b" d="M 1281.5,328.5 C 1269.5,328.5 1257.5,328.5 1245.5,328.5C 1243.13,319.899 1240.47,311.399 1237.5,303C 1220.5,302.5 1203.5,302.333 1186.5,302.5C 1184.03,311.242 1181.36,319.909 1178.5,328.5C 1166.5,328.5 1154.5,328.5 1142.5,328.5C 1155.09,288.548 1167.59,248.548 1180,208.5C 1179.2,198.594 1177.04,188.927 1173.5,179.5C 1190.82,178.334 1208.16,178.167 1225.5,179C 1230.88,186.921 1236.38,194.754 1242,202.5C 1255.17,244.519 1268.34,286.519 1281.5,328.5 Z M 1211.5,221.5 C 1216.91,237.215 1222.24,253.049 1227.5,269C 1217.51,269.5 1207.51,269.666 1197.5,269.5C 1202.37,253.553 1207.04,237.553 1211.5,221.5 Z"/></g>
<g><path style="opacity:0.988" fill="#19141b" d="M 1701.5,328.5 C 1668.5,328.5 1635.5,328.5 1602.5,328.5C 1596.54,322.035 1590.37,315.702 1584,309.5C 1583.33,272.5 1583.33,235.5 1584,198.5C 1589.8,191.698 1595.97,185.198 1602.5,179C 1635.5,178.333 1668.5,178.333 1701.5,179C 1708.03,185.198 1714.2,191.698 1720,198.5C 1720.67,235.5 1720.67,272.5 1720,309.5C 1713.63,315.702 1707.46,322.035 1701.5,328.5 Z M 1617.5,212.5 C 1640.5,212.5 1663.5,212.5 1686.5,212.5C 1686.5,239.833 1686.5,267.167 1686.5,294.5C 1663.5,294.5 1640.5,294.5 1617.5,294.5C 1617.5,267.167 1617.5,239.833 1617.5,212.5 Z"/></g>
<g><path style="opacity:0.981" fill="#19141b" d="M 1887.5,328.5 C 1874.17,328.5 1860.83,328.5 1847.5,328.5C 1837.96,308.952 1827.96,289.619 1817.5,270.5C 1809.86,269.503 1802.2,269.169 1794.5,269.5C 1794.5,289.167 1794.5,308.833 1794.5,328.5C 1782.83,328.5 1771.17,328.5 1759.5,328.5C 1759.67,287.165 1759.5,245.832 1759,204.5C 1756.65,196.115 1754.15,187.782 1751.5,179.5C 1788.83,178.333 1826.16,178.167 1863.5,179C 1869.67,185.167 1875.83,191.333 1882,197.5C 1882.67,215.167 1882.67,232.833 1882,250.5C 1873.08,255.708 1864.25,261.041 1855.5,266.5C 1866.63,286.952 1877.29,307.619 1887.5,328.5 Z M 1794.5,212.5 C 1812.5,212.5 1830.5,212.5 1848.5,212.5C 1848.5,220.167 1848.5,227.833 1848.5,235.5C 1830.5,235.5 1812.5,235.5 1794.5,235.5C 1794.5,227.833 1794.5,220.167 1794.5,212.5 Z"/></g>
<g><path style="opacity:0.721" fill="#19141b" d="M 1919.5,178.5 C 1919.5,182.5 1919.5,186.5 1919.5,190.5C 1917.9,186.761 1916.9,182.761 1916.5,178.5C 1917.5,178.5 1918.5,178.5 1919.5,178.5 Z"/></g>
<g><path style="opacity:0.782" fill="#19141b" d="M 1919.5,269.5 C 1919.5,289.167 1919.5,308.833 1919.5,328.5C 1918.17,328.5 1916.83,328.5 1915.5,328.5C 1916.39,308.652 1917.72,288.985 1919.5,269.5 Z"/></g>
</svg>
