<?xml version="1.0" encoding="UTF-8"?>
<!DOCTYPE svg PUBLIC "-//W3C//DTD SVG 1.1//EN" "http://www.w3.org/Graphics/SVG/1.1/DTD/svg11.dtd">
<svg xmlns="http://www.w3.org/2000/svg" version="1.1" width="1899px" height="487px" style="shape-rendering:geometricPrecision; text-rendering:geometricPrecision; image-rendering:optimizeQuality; fill-rule:evenodd; clip-rule:evenodd" xmlns:xlink="http://www.w3.org/1999/xlink">
<g><path style="opacity:0.983" fill="#19141b" d="M 200.5,-0.5 C 245.833,-0.5 291.167,-0.5 336.5,-0.5C 344.464,7.96497 352.631,16.2983 361,24.5C 361.667,45.8333 361.667,67.1667 361,88.5C 353.167,96.3333 345.333,104.167 337.5,112C 309.502,112.5 281.502,112.667 253.5,112.5C 253.5,136.5 253.5,160.5 253.5,184.5C 239.5,184.5 225.5,184.5 211.5,184.5C 211.667,134.832 211.5,85.1655 211,35.5C 207.392,23.5119 203.892,11.5119 200.5,-0.5 Z M 253.5,42.5 C 275.5,42.5 297.5,42.5 319.5,42.5C 319.5,51.8333 319.5,61.1667 319.5,70.5C 297.5,70.5 275.5,70.5 253.5,70.5C 253.5,61.1667 253.5,51.8333 253.5,42.5 Z"/></g>
<g><path style="opacity:0.977" fill="#19141b" d="M 425.5,-0.5 C 457.833,-0.5 490.167,-0.5 522.5,-0.5C 530.828,7.99529 538.995,16.662 547,25.5C 547.5,37.1619 547.667,48.8286 547.5,60.5C 533.5,60.5 519.5,60.5 505.5,60.5C 505.5,54.5 505.5,48.5 505.5,42.5C 484.167,42.5 462.833,42.5 441.5,42.5C 441.5,75.8333 441.5,109.167 441.5,142.5C 466.833,142.5 492.167,142.5 517.5,142.5C 517.5,134.833 517.5,127.167 517.5,119.5C 502.496,119.667 487.496,119.5 472.5,119C 468.407,105.551 464.407,92.0515 460.5,78.5C 485.16,77.3335 509.827,77.1668 534.5,78C 542.667,86.1667 550.833,94.3333 559,102.5C 559.5,130.165 559.667,157.831 559.5,185.5C 514.832,185.667 470.165,185.5 425.5,185C 417,176.5 408.5,168 400,159.5C 399.333,114.5 399.333,69.5 400,24.5C 409.005,16.6616 417.505,8.32823 425.5,-0.5 Z"/></g>
<g><path style="opacity:0.98" fill="#19141b" d="M 592.5,-0.5 C 637.833,-0.5 683.167,-0.5 728.5,-0.5C 736.464,7.96497 744.631,16.2983 753,24.5C 753.667,45.8333 753.667,67.1667 753,88.5C 741.916,95.2925 730.749,101.959 719.5,108.5C 732.706,133.746 746.039,158.913 759.5,184C 743.167,184.667 726.833,184.667 710.5,184C 697.873,160.579 685.373,137.079 673,113.5C 663.583,112.515 654.083,112.182 644.5,112.5C 644.5,136.5 644.5,160.5 644.5,184.5C 630.5,184.5 616.5,184.5 602.5,184.5C 602.667,134.832 602.5,85.1655 602,35.5C 598.202,23.6388 595.035,11.6388 592.5,-0.5 Z M 644.5,42.5 C 666.833,42.5 689.167,42.5 711.5,42.5C 711.5,51.8333 711.5,61.1667 711.5,70.5C 689.167,70.5 666.833,70.5 644.5,70.5C 644.5,61.1667 644.5,51.8333 644.5,42.5 Z"/></g>
<g><path style="opacity:0.98" fill="#19141b" d="M 960.5,-0.5 C 1008.83,-0.5 1057.17,-0.5 1105.5,-0.5C 1113.83,7.99529 1121.99,16.662 1130,25.5C 1130.67,70.1667 1130.67,114.833 1130,159.5C 1122.2,168.303 1114.03,176.803 1105.5,185C 1060.83,185.5 1016.17,185.667 971.5,185.5C 971.667,135.499 971.5,85.4989 971,35.5C 967.392,23.5119 963.892,11.5119 960.5,-0.5 Z M 1013.5,43.5 C 1038.5,43.5 1063.5,43.5 1088.5,43.5C 1088.5,76.5 1088.5,109.5 1088.5,142.5C 1063.5,142.5 1038.5,142.5 1013.5,142.5C 1013.5,109.5 1013.5,76.5 1013.5,43.5 Z"/></g>
<g><path style="opacity:0.98" fill="#19141b" d="M 4.5,0.5 C 18.5,0.5 32.5,0.5 46.5,0.5C 46.5,47.8333 46.5,95.1667 46.5,142.5C 72.1667,142.5 97.8333,142.5 123.5,142.5C 123.5,95.1667 123.5,47.8333 123.5,0.5C 137.5,0.5 151.5,0.5 165.5,0.5C 165.667,53.8344 165.5,107.168 165,160.5C 156.833,168.667 148.667,176.833 140.5,185C 103.5,185.667 66.5,185.667 29.5,185C 21.3333,176.833 13.1667,168.667 5,160.5C 4.50001,107.168 4.33334,53.8344 4.5,0.5 Z"/></g>
<g><path style="opacity:0.98" fill="#19141b" d="M 809.5,1.5 C 830.663,0.337256 851.996,0.170589 873.5,1C 880.21,10.9206 887.043,20.7539 894,30.5C 909.785,81.8127 925.952,132.979 942.5,184C 927.822,184.833 913.155,184.666 898.5,183.5C 895.26,173.28 891.927,163.114 888.5,153C 867.503,152.5 846.503,152.333 825.5,152.5C 822.502,163.161 819.502,173.827 816.5,184.5C 801.833,184.5 787.167,184.5 772.5,184.5C 787.554,134.003 803.221,83.67 819.5,33.5C 816.33,22.6646 812.997,11.9979 809.5,1.5 Z M 856.5,53.5 C 863.436,72.807 870.103,92.307 876.5,112C 863.82,112.833 851.154,112.666 838.5,111.5C 845.111,92.3359 851.111,73.0026 856.5,53.5 Z"/></g>
<g><path style="opacity:0.985" fill="#19141b" d="M 1171.5,0.5 C 1215.17,0.333343 1258.83,0.50001 1302.5,1C 1306.59,14.4485 1310.59,27.9485 1314.5,41.5C 1280.84,42.4999 1247.17,42.8332 1213.5,42.5C 1213.5,52.1667 1213.5,61.8333 1213.5,71.5C 1237.84,71.3334 1262.17,71.5 1286.5,72C 1290.5,85.6667 1294.5,99.3333 1298.5,113C 1270.17,113.5 1241.84,113.667 1213.5,113.5C 1213.5,123.167 1213.5,132.833 1213.5,142.5C 1243.17,142.167 1272.84,142.5 1302.5,143.5C 1306.81,157.424 1310.81,171.424 1314.5,185.5C 1266.83,185.5 1219.17,185.5 1171.5,185.5C 1171.5,123.833 1171.5,62.1667 1171.5,0.5 Z"/></g>
<g><path style="opacity:0.98" fill="#19141b" d="M 1459.5,5.5 C 1496.17,5.5 1532.83,5.5 1569.5,5.5C 1572.83,19.1667 1576.17,32.8333 1579.5,46.5C 1545.17,46.5 1510.83,46.5 1476.5,46.5C 1476.5,55.8333 1476.5,65.1667 1476.5,74.5C 1488.52,74.1677 1500.52,74.501 1512.5,75.5C 1516.43,88.7125 1520.43,101.879 1524.5,115C 1508.5,115.5 1492.5,115.667 1476.5,115.5C 1476.5,124.833 1476.5,134.167 1476.5,143.5C 1498.5,143.5 1520.5,143.5 1542.5,143.5C 1542.5,120.5 1542.5,97.5 1542.5,74.5C 1564.84,74.167 1587.18,74.5003 1609.5,75.5C 1613.58,88.7374 1617.25,102.071 1620.5,115.5C 1608.17,115.5 1595.83,115.5 1583.5,115.5C 1583.5,138.833 1583.5,162.167 1583.5,185.5C 1542.5,185.667 1501.5,185.5 1460.5,185C 1452.33,176.833 1444.17,168.667 1436,160.5C 1435.33,145.5 1435.33,130.5 1436,115.5C 1441.9,108.607 1447.4,101.441 1452.5,94C 1447.01,86.5107 1441.51,79.0107 1436,71.5C 1435.33,57.5 1435.33,43.5 1436,29.5C 1444.04,21.6316 1451.87,13.6316 1459.5,5.5 Z"/></g>
<g><path style="opacity:0.976" fill="#19141b" d="M 125.5,486.5 C 87.5,486.5 49.5,486.5 11.5,486.5C 7.94544,472.599 3.94544,458.932 -0.5,445.5C -0.5,444.833 -0.5,444.167 -0.5,443.5C 36.1667,443.5 72.8333,443.5 109.5,443.5C 109.5,435.5 109.5,427.5 109.5,419.5C 81.498,419.667 53.498,419.5 25.5,419C 17.3023,411.137 9.46897,402.97 2,394.5C 1.33333,371.5 1.33333,348.5 2,325.5C 10.1667,317.333 18.3333,309.167 26.5,301C 57.5,300.333 88.5,300.333 119.5,301C 127.667,309.167 135.833,317.333 144,325.5C 144.5,337.162 144.667,348.829 144.5,360.5C 130.5,360.5 116.5,360.5 102.5,360.5C 102.5,354.833 102.5,349.167 102.5,343.5C 82.8333,343.5 63.1667,343.5 43.5,343.5C 43.5,354.833 43.5,366.167 43.5,377.5C 71.1687,377.333 98.8353,377.5 126.5,378C 134.667,386.167 142.833,394.333 151,402.5C 151.667,422.167 151.667,441.833 151,461.5C 141.995,469.338 133.495,477.672 125.5,486.5 Z"/></g>
<g><path style="opacity:0.975" fill="#19141b" d="M 972.5,486.5 C 933.167,486.5 893.833,486.5 854.5,486.5C 846.505,477.672 838.005,469.338 829,461.5C 828.333,416.5 828.333,371.5 829,326.5C 837.5,318 846,309.5 854.5,301C 893.833,300.333 933.167,300.333 972.5,301C 980.302,309.803 988.469,318.303 997,326.5C 997.667,371.5 997.667,416.5 997,461.5C 988.631,469.702 980.464,478.035 972.5,486.5 Z M 870.5,343.5 C 898.833,343.5 927.167,343.5 955.5,343.5C 955.5,376.833 955.5,410.167 955.5,443.5C 927.167,443.5 898.833,443.5 870.5,443.5C 870.5,410.167 870.5,376.833 870.5,343.5 Z"/></g>
<g><path style="opacity:0.98" fill="#19141b" d="M 1235.5,300.5 C 1280.83,300.333 1326.17,300.5 1371.5,301C 1379.67,309.167 1387.83,317.333 1396,325.5C 1396.67,346.833 1396.67,368.167 1396,389.5C 1384.92,396.293 1373.75,402.959 1362.5,409.5C 1375.71,434.746 1389.04,459.913 1402.5,485C 1386.17,485.667 1369.83,485.667 1353.5,485C 1340.87,461.579 1328.37,438.079 1316,414.5C 1306.58,413.515 1297.08,413.182 1287.5,413.5C 1287.5,437.5 1287.5,461.5 1287.5,485.5C 1273.5,485.5 1259.5,485.5 1245.5,485.5C 1245.67,435.832 1245.5,386.166 1245,336.5C 1241.2,324.639 1238.04,312.639 1235.5,300.5 Z M 1287.5,343.5 C 1309.83,343.5 1332.17,343.5 1354.5,343.5C 1354.5,352.833 1354.5,362.167 1354.5,371.5C 1332.17,371.5 1309.83,371.5 1287.5,371.5C 1287.5,362.167 1287.5,352.833 1287.5,343.5 Z"/></g>
<g><path style="opacity:0.985" fill="#19141b" d="M 1728.5,300.5 C 1772.17,300.5 1815.83,300.5 1859.5,300.5C 1863.19,314.576 1867.19,328.576 1871.5,342.5C 1837.84,343.5 1804.17,343.833 1770.5,343.5C 1770.5,353.167 1770.5,362.833 1770.5,372.5C 1794.84,372.167 1819.18,372.5 1843.5,373.5C 1847.64,387.056 1851.31,400.722 1854.5,414.5C 1826.5,414.5 1798.5,414.5 1770.5,414.5C 1770.5,438.167 1770.5,461.833 1770.5,485.5C 1756.5,485.5 1742.5,485.5 1728.5,485.5C 1728.5,423.833 1728.5,362.167 1728.5,300.5 Z"/></g>
<g><path style="opacity:0.801" fill="#19141b" d="M 1898.5,300.5 C 1898.5,309.167 1898.5,317.833 1898.5,326.5C 1895.7,318.327 1893.03,309.994 1890.5,301.5C 1893.09,300.52 1895.75,300.187 1898.5,300.5 Z"/></g>
<g><path style="opacity:0.985" fill="#19141b" d="M 335.5,486.5 C 287.833,486.5 240.167,486.5 192.5,486.5C 192.5,424.833 192.5,363.167 192.5,301.5C 236.168,301.333 279.835,301.5 323.5,302C 327.593,315.449 331.593,328.949 335.5,342.5C 301.84,343.5 268.173,343.833 234.5,343.5C 234.5,353.167 234.5,362.833 234.5,372.5C 258.836,372.333 283.169,372.5 307.5,373C 311.5,386.667 315.5,400.333 319.5,414C 291.169,414.5 262.835,414.667 234.5,414.5C 234.5,424.167 234.5,433.833 234.5,443.5C 264.174,443.167 293.841,443.5 323.5,444.5C 327.814,458.424 331.814,472.424 335.5,486.5 Z"/></g>
<g><path style="opacity:0.985" fill="#19141b" d="M 510.5,486.5 C 462.833,486.5 415.167,486.5 367.5,486.5C 367.5,424.833 367.5,363.167 367.5,301.5C 411.168,301.333 454.835,301.5 498.5,302C 502.593,315.449 506.593,328.949 510.5,342.5C 476.84,343.5 443.173,343.833 409.5,343.5C 409.5,353.167 409.5,362.833 409.5,372.5C 433.836,372.333 458.169,372.5 482.5,373C 486.5,386.667 490.5,400.333 494.5,414C 466.169,414.5 437.835,414.667 409.5,414.5C 409.5,424.167 409.5,433.833 409.5,443.5C 439.174,443.167 468.841,443.5 498.5,444.5C 502.814,458.424 506.814,472.424 510.5,486.5 Z"/></g>
<g><path style="opacity:0.98" fill="#19141b" d="M 622.5,301.5 C 639.17,301.333 655.837,301.5 672.5,302C 685.297,321.096 698.464,339.929 712,358.5C 724.833,339.667 737.667,320.833 750.5,302C 767.5,301.333 784.5,301.333 801.5,302C 778.296,334.906 755.463,368.072 733,401.5C 732.5,429.498 732.333,457.498 732.5,485.5C 718.5,485.5 704.5,485.5 690.5,485.5C 690.667,457.165 690.5,428.831 690,400.5C 666.986,367.789 644.486,334.789 622.5,301.5 Z"/></g>
<g><path style="opacity:0.98" fill="#19141b" d="M 1178.5,486.5 C 1141.5,486.5 1104.5,486.5 1067.5,486.5C 1059.54,478.035 1051.37,469.702 1043,461.5C 1042.5,408.168 1042.33,354.834 1042.5,301.5C 1056.5,301.5 1070.5,301.5 1084.5,301.5C 1084.5,348.833 1084.5,396.167 1084.5,443.5C 1110.17,443.5 1135.83,443.5 1161.5,443.5C 1161.5,396.167 1161.5,348.833 1161.5,301.5C 1175.5,301.5 1189.5,301.5 1203.5,301.5C 1203.67,354.834 1203.5,408.168 1203,461.5C 1194.63,469.702 1186.46,478.035 1178.5,486.5 Z"/></g>
<g><path style="opacity:0.992" fill="#19141b" d="M 1531.5,301.5 C 1548.18,301.167 1564.85,301.501 1581.5,302.5C 1588.86,312.026 1596.03,321.692 1603,331.5C 1616,360.167 1629,388.833 1642,417.5C 1642.5,378.835 1642.67,340.168 1642.5,301.5C 1656.5,301.5 1670.5,301.5 1684.5,301.5C 1684.5,362.833 1684.5,424.167 1684.5,485.5C 1668.16,485.667 1651.83,485.5 1635.5,485C 1628.21,476.258 1621.05,467.425 1614,458.5C 1600.67,429.167 1587.33,399.833 1574,370.5C 1573.5,408.832 1573.33,447.165 1573.5,485.5C 1559.5,485.5 1545.5,485.5 1531.5,485.5C 1531.5,424.167 1531.5,362.833 1531.5,301.5 Z"/></g>
</svg>
