<?xml version="1.0" encoding="UTF-8"?>
<!DOCTYPE svg PUBLIC "-//W3C//DTD SVG 1.1//EN" "http://www.w3.org/Graphics/SVG/1.1/DTD/svg11.dtd">
<svg xmlns="http://www.w3.org/2000/svg" version="1.1" width="1419px" height="437px" style="shape-rendering:geometricPrecision; text-rendering:geometricPrecision; image-rendering:optimizeQuality; fill-rule:evenodd; clip-rule:evenodd" xmlns:xlink="http://www.w3.org/1999/xlink">
<g><path style="opacity:0.955" fill="#19141b" d="M 313.5,-0.5 C 326.167,-0.5 338.833,-0.5 351.5,-0.5C 351.5,10.1667 351.5,20.8333 351.5,31.5C 338.833,31.5 326.167,31.5 313.5,31.5C 313.5,20.8333 313.5,10.1667 313.5,-0.5 Z"/></g>
<g><path style="opacity:0.955" fill="#19141b" d="M 460.5,-0.5 C 473.167,-0.5 485.833,-0.5 498.5,-0.5C 498.5,10.1667 498.5,20.8333 498.5,31.5C 485.833,31.5 473.167,31.5 460.5,31.5C 460.5,20.8333 460.5,10.1667 460.5,-0.5 Z"/></g>
<g><path style="opacity:0.955" fill="#19141b" d="M 662.5,-0.5 C 675.167,-0.5 687.833,-0.5 700.5,-0.5C 700.5,10.1667 700.5,20.8333 700.5,31.5C 687.833,31.5 675.167,31.5 662.5,31.5C 662.5,20.8333 662.5,10.1667 662.5,-0.5 Z"/></g>
<g><path style="opacity:0.987" fill="#19141b" d="M 389.5,0.5 C 401.833,0.5 414.167,0.5 426.5,0.5C 426.5,55.8333 426.5,111.167 426.5,166.5C 414.167,166.5 401.833,166.5 389.5,166.5C 389.5,111.167 389.5,55.8333 389.5,0.5 Z"/></g>
<g><path style="opacity:0.984" fill="#19141b" d="M 3.5,1.5 C 15.8333,1.5 28.1667,1.5 40.5,1.5C 40.5,43.8333 40.5,86.1667 40.5,128.5C 63.8333,128.5 87.1667,128.5 110.5,128.5C 110.5,86.1667 110.5,43.8333 110.5,1.5C 123.167,1.5 135.833,1.5 148.5,1.5C 148.667,49.1678 148.5,96.8345 148,144.5C 140.833,151.667 133.667,158.833 126.5,166C 92.5,166.667 58.5,166.667 24.5,166C 17.6667,159.167 10.8333,152.333 4,145.5C 3.50001,97.5012 3.33334,49.5012 3.5,1.5 Z"/></g>
<g><path style="opacity:0.979" fill="#19141b" d="M 197.5,16.5 C 209.833,16.5 222.167,16.5 234.5,16.5C 234.5,25.5 234.5,34.5 234.5,43.5C 247.504,43.3334 260.504,43.5001 273.5,44C 277.26,55.7812 280.927,67.6145 284.5,79.5C 267.847,80.4995 251.18,80.8328 234.5,80.5C 234.5,96.8333 234.5,113.167 234.5,129.5C 247.517,129.168 260.517,129.501 273.5,130.5C 277.149,142.431 280.482,154.431 283.5,166.5C 261.831,166.667 240.164,166.5 218.5,166C 211.667,159.167 204.833,152.333 198,145.5C 197.5,124.169 197.333,102.836 197.5,81.5C 192.786,81.8266 188.12,81.4933 183.5,80.5C 180.061,68.2416 176.395,56.0749 172.5,44C 180.827,43.5003 189.16,43.3336 197.5,43.5C 197.5,34.5 197.5,25.5 197.5,16.5 Z"/></g>
<g><path style="opacity:0.979" fill="#19141b" d="M 545.5,16.5 C 557.833,16.5 570.167,16.5 582.5,16.5C 582.5,25.5 582.5,34.5 582.5,43.5C 595.504,43.3334 608.504,43.5001 621.5,44C 625.26,55.7812 628.927,67.6145 632.5,79.5C 615.847,80.4995 599.18,80.8328 582.5,80.5C 582.5,96.8333 582.5,113.167 582.5,129.5C 595.517,129.168 608.517,129.501 621.5,130.5C 625.149,142.431 628.482,154.431 631.5,166.5C 609.831,166.667 588.164,166.5 566.5,166C 559.667,159.167 552.833,152.333 546,145.5C 545.5,124.169 545.333,102.836 545.5,81.5C 540.786,81.8266 536.12,81.4933 531.5,80.5C 528.061,68.2416 524.395,56.0749 520.5,44C 528.827,43.5003 537.16,43.3336 545.5,43.5C 545.5,34.5 545.5,25.5 545.5,16.5 Z"/></g>
<g><path style="opacity:0.97" fill="#19141b" d="M 902.5,43.5 C 924.169,43.3334 945.836,43.5 967.5,44C 974.667,51.1667 981.833,58.3333 989,65.5C 989.5,72.8258 989.666,80.1591 989.5,87.5C 977.167,87.5 964.833,87.5 952.5,87.5C 952.5,84.1667 952.5,80.8333 952.5,77.5C 940.833,77.5 929.167,77.5 917.5,77.5C 917.5,82.8333 917.5,88.1667 917.5,93.5C 935.836,93.3334 954.17,93.5001 972.5,94C 979.667,100.5 986.833,107 994,113.5C 994.667,124.167 994.667,134.833 994,145.5C 987.167,152.333 980.333,159.167 973.5,166C 945.169,166.5 916.835,166.667 888.5,166.5C 885.481,154.425 882.148,142.425 878.5,130.5C 904.825,129.5 931.158,129.167 957.5,129.5C 957.5,125.5 957.5,121.5 957.5,117.5C 938.497,117.667 919.497,117.5 900.5,117C 894.093,111.381 887.593,105.881 881,100.5C 880.333,88.8333 880.333,77.1667 881,65.5C 888.369,58.2982 895.536,50.9649 902.5,43.5 Z"/></g>
<g><path style="opacity:0.987" fill="#19141b" d="M 313.5,44.5 C 326.167,44.5 338.833,44.5 351.5,44.5C 351.5,85.1667 351.5,125.833 351.5,166.5C 338.833,166.5 326.167,166.5 313.5,166.5C 313.5,125.833 313.5,85.1667 313.5,44.5 Z"/></g>
<g><path style="opacity:0.987" fill="#19141b" d="M 460.5,44.5 C 473.167,44.5 485.833,44.5 498.5,44.5C 498.5,85.1667 498.5,125.833 498.5,166.5C 485.833,166.5 473.167,166.5 460.5,166.5C 460.5,125.833 460.5,85.1667 460.5,44.5 Z"/></g>
<g><path style="opacity:0.987" fill="#19141b" d="M 662.5,44.5 C 675.167,44.5 687.833,44.5 700.5,44.5C 700.5,85.1667 700.5,125.833 700.5,166.5C 687.833,166.5 675.167,166.5 662.5,166.5C 662.5,125.833 662.5,85.1667 662.5,44.5 Z"/></g>
<g><path style="opacity:0.977" fill="#19141b" d="M 755.5,44.5 C 778.502,44.3334 801.502,44.5 824.5,45C 831.667,52.1667 838.833,59.3333 846,66.5C 846.832,76.5166 846.666,86.5166 845.5,96.5C 838.681,102.819 832.014,109.319 825.5,116C 807.503,116.5 789.503,116.667 771.5,116.5C 771.5,120.833 771.5,125.167 771.5,129.5C 791.833,129.5 812.167,129.5 832.5,129.5C 835.217,141.654 838.551,153.654 842.5,165.5C 813.506,166.667 784.506,166.833 755.5,166C 748.667,159.167 741.833,152.333 735,145.5C 734.333,118.833 734.333,92.1667 735,65.5C 742.036,58.6315 748.869,51.6315 755.5,44.5 Z M 771.5,80.5 C 784.167,80.5 796.833,80.5 809.5,80.5C 809.5,85.5 809.5,90.5 809.5,95.5C 796.833,95.5 784.167,95.5 771.5,95.5C 771.5,90.5 771.5,85.5 771.5,80.5 Z"/></g>
<g><path style="opacity:0.981" fill="#19141b" d="M 183.5,436.5 C 171.167,436.5 158.833,436.5 146.5,436.5C 146.333,388.166 146.5,339.832 147,291.5C 153.468,284.03 160.302,276.864 167.5,270C 179.181,269.167 190.848,269.334 202.5,270.5C 205.678,282.212 209.011,293.878 212.5,305.5C 202.856,306.498 193.19,306.832 183.5,306.5C 183.5,310.833 183.5,315.167 183.5,319.5C 190.2,319.17 196.866,319.503 203.5,320.5C 206.5,330.5 209.5,340.5 212.5,350.5C 202.856,351.498 193.19,351.832 183.5,351.5C 183.5,379.833 183.5,408.167 183.5,436.5 Z"/></g>
<g><path style="opacity:0.955" fill="#19141b" d="M 1228.5,269.5 C 1241.17,269.5 1253.83,269.5 1266.5,269.5C 1266.5,280.167 1266.5,290.833 1266.5,301.5C 1253.83,301.5 1241.17,301.5 1228.5,301.5C 1228.5,290.833 1228.5,280.167 1228.5,269.5 Z"/></g>
<g><path style="opacity:0.987" fill="#19141b" d="M 446.5,436.5 C 405.833,436.5 365.167,436.5 324.5,436.5C 324.667,391.499 324.5,346.499 324,301.5C 320.851,291.57 318.018,281.57 315.5,271.5C 359.168,271.333 402.835,271.5 446.5,272C 453.667,279.167 460.833,286.333 468,293.5C 468.667,333.833 468.667,374.167 468,414.5C 460.631,421.702 453.464,429.035 446.5,436.5 Z M 362.5,309.5 C 385.167,309.5 407.833,309.5 430.5,309.5C 430.5,339.167 430.5,368.833 430.5,398.5C 407.833,398.5 385.167,398.5 362.5,398.5C 362.5,368.833 362.5,339.167 362.5,309.5 Z"/></g>
<g><path style="opacity:0.982" fill="#19141b" d="M 632.5,436.5 C 589.5,436.5 546.5,436.5 503.5,436.5C 503.5,381.5 503.5,326.5 503.5,271.5C 516.167,271.5 528.833,271.5 541.5,271.5C 541.5,313.833 541.5,356.167 541.5,398.5C 568.167,398.5 594.833,398.5 621.5,398.5C 624.767,411.299 628.434,423.966 632.5,436.5 Z"/></g>
<g><path style="opacity:0.987" fill="#19141b" d="M 781.5,436.5 C 740.833,436.5 700.167,436.5 659.5,436.5C 659.667,391.499 659.5,346.499 659,301.5C 655.851,291.57 653.018,281.57 650.5,271.5C 694.168,271.333 737.835,271.5 781.5,272C 788.667,279.167 795.833,286.333 803,293.5C 803.667,333.833 803.667,374.167 803,414.5C 795.631,421.702 788.464,429.035 781.5,436.5 Z M 697.5,309.5 C 720.167,309.5 742.833,309.5 765.5,309.5C 765.5,339.167 765.5,368.833 765.5,398.5C 742.833,398.5 720.167,398.5 697.5,398.5C 697.5,368.833 697.5,339.167 697.5,309.5 Z"/></g>
<g><path style="opacity:0.975" fill="#19141b" d="M 1054.5,436.5 C 1017.5,436.5 980.5,436.5 943.5,436.5C 936.869,429.368 930.036,422.368 923,415.5C 922.333,374.5 922.333,333.5 923,292.5C 929.833,285.667 936.667,278.833 943.5,272C 972.5,271.333 1001.5,271.333 1030.5,272C 1037.36,279.198 1044.53,286.032 1052,292.5C 1052.5,303.495 1052.67,314.495 1052.5,325.5C 1039.83,325.5 1027.17,325.5 1014.5,325.5C 1014.5,320.167 1014.5,314.833 1014.5,309.5C 996.5,309.5 978.5,309.5 960.5,309.5C 960.5,339.167 960.5,368.833 960.5,398.5C 988.508,398.167 1016.51,398.5 1044.5,399.5C 1048.24,411.732 1051.58,424.066 1054.5,436.5 Z"/></g>
<g><path style="opacity:0.981" fill="#19141b" d="M 92.5,436.5 C 68.5,436.5 44.5,436.5 20.5,436.5C 13.8333,429.167 6.83333,422.167 -0.5,415.5C -0.5,388.833 -0.5,362.167 -0.5,335.5C 6.63154,328.869 13.6315,322.036 20.5,315C 44.5,314.333 68.5,314.333 92.5,315C 99.3333,321.833 106.167,328.667 113,335.5C 113.667,362.167 113.667,388.833 113,415.5C 105.964,422.368 99.1307,429.368 92.5,436.5 Z M 36.5,350.5 C 49.8333,350.5 63.1667,350.5 76.5,350.5C 76.5,366.833 76.5,383.167 76.5,399.5C 63.1667,399.5 49.8333,399.5 36.5,399.5C 36.5,383.167 36.5,366.833 36.5,350.5 Z"/></g>
<g><path style="opacity:0.981" fill="#19141b" d="M 1175.5,436.5 C 1151.5,436.5 1127.5,436.5 1103.5,436.5C 1096.87,429.368 1090.04,422.368 1083,415.5C 1082.33,388.833 1082.33,362.167 1083,335.5C 1089.83,328.667 1096.67,321.833 1103.5,315C 1127.5,314.333 1151.5,314.333 1175.5,315C 1182.33,321.833 1189.17,328.667 1196,335.5C 1196.67,362.167 1196.67,388.833 1196,415.5C 1188.96,422.368 1182.13,429.368 1175.5,436.5 Z M 1119.5,350.5 C 1132.83,350.5 1146.17,350.5 1159.5,350.5C 1159.5,366.833 1159.5,383.167 1159.5,399.5C 1146.17,399.5 1132.83,399.5 1119.5,399.5C 1119.5,383.167 1119.5,366.833 1119.5,350.5 Z"/></g>
<g><path style="opacity:0.987" fill="#19141b" d="M 1266.5,436.5 C 1253.83,436.5 1241.17,436.5 1228.5,436.5C 1228.5,395.833 1228.5,355.167 1228.5,314.5C 1241.17,314.5 1253.83,314.5 1266.5,314.5C 1266.5,355.167 1266.5,395.833 1266.5,436.5 Z"/></g>
<g><path style="opacity:0.994" fill="#19141b" d="M 1418.5,335.5 C 1418.5,369.167 1418.5,402.833 1418.5,436.5C 1406.5,436.5 1394.5,436.5 1382.5,436.5C 1382.5,407.833 1382.5,379.167 1382.5,350.5C 1368.83,350.5 1355.17,350.5 1341.5,350.5C 1341.5,379.167 1341.5,407.833 1341.5,436.5C 1329.17,436.5 1316.83,436.5 1304.5,436.5C 1304.5,395.833 1304.5,355.167 1304.5,314.5C 1316.5,314.5 1328.5,314.5 1340.5,314.5C 1340.33,318.846 1340.5,323.179 1341,327.5C 1345.17,323.333 1349.33,319.167 1353.5,315C 1368.17,314.333 1382.83,314.333 1397.5,315C 1404.37,322.036 1411.37,328.869 1418.5,335.5 Z"/></g>
</svg>
